<svg width="604" height="302" viewBox="0 0 604 302" fill="none" xmlns="http://www.w3.org/2000/svg">
<path d="M602.611 164.432L597.188 154.997L588.709 156.245L581.722 147.448L585.329 138.72L575.871 132.445L568.807 139.558L559.506 137.934L555.742 126.998L544.433 128.194L543.796 137.751L535.368 141.975L526.452 135.665L517.405 142.255L522.103 152.37L516.724 160.478L506.952 159.955L504.393 172.008L513.693 175.586L514.497 185.711L504.891 191.253L509.502 201.726L519.483 200.173L526.094 207.801L522.601 217.314L531.744 223.764L538.879 216.048L548.782 218.728L551.865 228.939L562.868 228.198L564.283 219.025L573.723 213.613L581.443 219.766L591.206 212.496L586.255 203.943L591.067 195.329L600.97 196.053L604 184.838L595.503 180.247L594.376 170.027L602.611 164.432ZM564.274 197.432C560.459 199.621 556.08 200.629 551.691 200.331C547.302 200.032 543.1 198.44 539.617 195.754C536.134 193.069 533.525 189.412 532.122 185.245C530.718 181.078 530.582 176.589 531.731 172.345C532.881 168.101 535.263 164.293 538.578 161.403C541.893 158.512 545.99 156.669 550.353 156.106C554.716 155.543 559.148 156.285 563.089 158.24C567.029 160.194 570.302 163.272 572.492 167.085C575.426 172.199 576.209 178.268 574.668 183.959C573.127 189.649 569.389 194.495 564.274 197.432Z" fill="#F4B7A2"/>
<path d="M87.2414 275.79C103.974 261.337 105.65 237.554 102.768 216.616C102.288 213.125 102.288 209.389 100.306 206.483C98.3234 203.576 94.1927 201.883 91.2148 203.681C88.7347 205.174 87.9138 208.324 86.7174 210.978C85.1189 214.527 82.5486 217.553 79.3032 219.705C77.1811 221.093 74.4914 222.088 72.1597 221.102C68.9635 219.74 68.1775 215.603 67.7933 212.112L65.9506 192.597C65.6101 189.106 65.252 185.553 63.8286 182.35C62.4051 179.147 59.6804 176.328 56.2659 175.743C52.8513 175.159 48.9477 177.489 48.5984 180.98C48.45 182.438 48.8953 183.878 48.9477 185.344C49.0001 186.81 48.4936 188.477 47.2012 189.018C45.9087 189.559 44.3543 188.73 43.2015 187.814C39.2368 184.663 36.3288 180.378 33.5954 176.101C30.862 171.825 28.1548 167.443 24.487 163.935C20.8192 160.426 15.9899 157.825 10.9598 158.087C5.92964 158.349 0.92571 161.953 0.174684 166.989C-0.576343 172.025 2.79454 176.721 6.33135 180.378C11.5726 185.807 17.5732 190.449 24.1464 194.159C25.3253 194.822 26.6003 195.547 27.1592 196.777C28.1548 199.02 26.1899 201.56 23.9717 202.564C21.4567 203.69 18.6098 203.716 15.92 204.309C13.2303 204.903 10.4096 206.413 9.64984 209.084C8.58443 212.802 11.9553 216.223 15.1428 218.37C21.5399 222.668 28.6298 225.833 36.1017 227.726C38.7216 228.398 41.551 228.948 43.8041 230.537C46.0572 232.125 47.6291 235.127 46.6335 237.711C45.638 240.294 42.5116 241.42 39.7695 241.202C37.0274 240.984 34.4774 239.771 31.8139 239.072C26.8274 237.754 20.6707 238.723 18.0247 243.183C16.2781 246.116 16.5051 249.921 17.8587 253.063C19.2123 256.205 21.5702 258.789 24.0416 261.136C32.6522 269.358 43.2539 275.598 54.7638 278.304C66.2738 281.01 76.7008 280.992 87.3374 275.816" fill="#F4B7A2"/>
<path d="M89.1189 293.464C87.1412 283.823 84.2402 274.394 80.4559 265.308C75.7853 254.228 70.4815 243.426 64.5708 232.954C63.0164 230.161 61.4823 227.403 59.9686 224.68C58.4578 221.975 56.9558 219.286 55.3227 216.747C52.178 211.879 48.767 207.188 45.1053 202.695C41.6121 198.383 38.1888 194.421 34.9402 190.738C31.6916 187.055 28.574 183.686 25.6223 180.736C20.9769 176.051 15.9659 171.743 10.6367 167.853C8.75035 166.474 7.25703 165.453 6.27022 164.772L5.10001 164.013L4.6983 163.769C4.80796 163.882 4.93114 163.982 5.06508 164.066L6.20035 164.886C7.1959 165.602 8.66302 166.632 10.5668 168.054C15.8328 172.013 20.7952 176.36 25.4127 181.059C28.3382 184.026 31.4209 187.404 34.652 191.096C37.8832 194.787 41.3065 198.759 44.756 203.07C48.389 207.556 51.7765 212.235 54.9036 217.087C56.5191 219.618 58.0125 222.28 59.532 225.003L64.1255 233.268C70.0246 243.727 75.3309 254.508 80.0193 265.561C83.8042 274.602 86.7281 283.98 88.7522 293.569" fill="#FE4400"/>
<path d="M55.1306 214.608C55.2514 214.108 55.3158 213.596 55.3228 213.081C55.4101 212.103 55.4799 210.672 55.5498 208.909C55.6808 205.418 55.6983 200.522 55.707 195.145C55.7157 189.769 55.7943 184.916 55.9864 181.408C56.0738 179.662 56.1611 178.231 56.231 177.245C56.2902 176.737 56.2902 176.225 56.231 175.717C56.0819 176.206 55.9853 176.709 55.9428 177.218C55.7943 178.196 55.6371 179.619 55.4974 181.373C55.183 184.864 55.0258 189.769 55.0258 195.145C55.0258 200.522 55.0258 205.235 55.0258 208.9C55.0258 210.559 55.0258 211.955 55.0258 213.072C55.0074 213.587 55.0425 214.101 55.1306 214.608Z" fill="#FE4400"/>
<path d="M9.40533 210.847C10.0091 210.912 10.618 210.912 11.2218 210.847C12.3832 210.847 14.06 210.794 16.1384 210.847C20.2952 210.847 26.0327 211.1 32.3553 211.623C38.6779 212.147 44.3717 212.898 48.4762 213.544C50.5371 213.858 52.1964 214.146 53.3404 214.347C53.9141 214.482 54.4985 214.566 55.087 214.6C54.5238 214.373 53.9384 214.206 53.3404 214.102C52.2051 213.823 50.5546 213.456 48.5024 213.09C44.3979 212.322 38.6954 211.519 32.3553 210.978C26.9459 210.503 21.5157 210.305 16.086 210.384C13.9988 210.384 12.3134 210.524 11.1519 210.62C10.5644 210.647 9.98026 210.723 9.40533 210.847Z" fill="#FE4400"/>
<path d="M79.8184 262.419C79.9257 262.238 80.0107 262.045 80.0717 261.843C80.2289 261.381 80.4297 260.822 80.6655 260.141C81.1807 258.658 81.8706 256.502 82.6828 253.822C84.3246 248.464 86.3419 240.984 88.464 232.71C90.586 224.436 92.5422 216.947 94.0617 211.562C94.8128 208.944 95.4241 206.788 95.8782 205.191C96.079 204.493 96.2362 203.917 96.3672 203.445C96.4421 203.247 96.4834 203.038 96.4895 202.826C96.3871 203.011 96.3051 203.207 96.2449 203.411C96.079 203.873 95.8782 204.432 95.6424 205.112C95.1271 206.587 94.4372 208.752 93.6251 211.431C91.992 216.79 89.966 224.261 87.8439 232.544C85.7218 240.827 83.7657 248.306 82.2462 253.692C81.5039 256.31 80.8838 258.466 80.4297 260.063L79.9494 261.808C79.8821 262.006 79.8381 262.211 79.8184 262.419Z" fill="#FE4400"/>
<path d="M18.2255 249.328C18.4185 249.42 18.6247 249.482 18.8368 249.511L20.6358 249.912L27.2291 251.326C32.8007 252.513 40.4769 254.25 48.9478 256.179C57.4186 258.108 65.1298 259.766 70.7275 260.84C73.522 261.381 75.7926 261.8 77.3645 262.053L79.1809 262.332C79.39 262.379 79.6045 262.396 79.8184 262.384C79.6201 262.298 79.4119 262.236 79.1984 262.201L77.4518 261.8L70.7799 260.421C65.2084 259.225 57.5322 257.497 49.0525 255.568C40.5729 253.639 32.9142 251.946 27.3164 250.899C24.5219 250.357 22.2514 249.947 20.6795 249.694L18.863 249.406C18.6541 249.356 18.4403 249.33 18.2255 249.328Z" fill="#FE4400"/>
<path d="M506.55 111.271L503.328 105.668L498.28 106.41L494.114 101.173L496.263 95.9362L490.647 92.2269L486.464 96.4686L480.936 95.4998L478.701 89.0063L471.977 89.7132L471.592 95.3951L466.588 97.9436L461.288 94.1906L455.899 98.1007L458.694 104.123L455.498 108.941L449.682 108.626L448.153 115.792L453.69 117.922L454.162 123.944L448.433 127.234L451.175 133.448L457.105 132.523L461.034 137.062L458.982 142.717L464.423 146.549L468.658 141.967L474.553 143.555L476.378 149.665L482.919 149.22L483.792 143.765L489.399 140.553L493.992 144.21L499.799 139.846L496.865 134.731L499.721 129.617L505.607 130.044L507.423 123.385L502.367 120.653L501.694 114.544L506.55 111.271ZM483.757 130.891C481.49 132.192 478.887 132.792 476.278 132.615C473.669 132.438 471.171 131.492 469.1 129.896C467.03 128.3 465.479 126.127 464.644 123.65C463.809 121.173 463.728 118.505 464.411 115.982C465.093 113.459 466.509 111.196 468.479 109.477C470.449 107.758 472.885 106.662 475.478 106.327C478.071 105.992 480.706 106.433 483.048 107.594C485.391 108.755 487.337 110.584 488.639 112.851C490.386 115.889 490.854 119.496 489.941 122.879C489.027 126.263 486.806 129.144 483.766 130.891H483.757Z" stroke="#5251A2" stroke-width="0.75" stroke-miterlimit="10"/>
<path d="M483.766 130.891C484.657 130.277 485.504 129.6 486.298 128.866C487.205 127.983 487.974 126.968 488.578 125.855C490.06 123.208 490.573 120.128 490.027 117.144C489.482 114.161 487.914 111.46 485.591 109.508C484.64 108.691 483.567 108.025 482.412 107.535C481.219 107.003 479.949 106.664 478.648 106.532C475.901 106.216 473.125 106.788 470.727 108.164C468.329 109.54 466.435 111.647 465.322 114.177C464.28 116.53 463.955 119.138 464.388 121.674C464.787 123.967 465.791 126.112 467.296 127.889C468.497 129.298 469.982 130.437 471.654 131.233C473.325 132.028 475.147 132.462 476.998 132.506C478.265 132.547 479.531 132.397 480.753 132.061C481.792 131.751 482.806 131.36 483.783 130.891C483.783 130.891 483.731 130.943 483.609 131.013L483.05 131.319C482.756 131.493 482.446 131.639 482.124 131.755C481.697 131.946 481.257 132.103 480.806 132.226C479.572 132.601 478.287 132.781 476.998 132.759C475.099 132.745 473.225 132.325 471.502 131.527C469.779 130.729 468.246 129.572 467.008 128.133C465.444 126.312 464.398 124.106 463.977 121.744C463.742 120.472 463.704 119.171 463.864 117.887C464 116.544 464.354 115.232 464.912 114.003C466.057 111.381 468.016 109.197 470.499 107.773C472.982 106.349 475.858 105.761 478.701 106.095C481.341 106.395 483.833 107.47 485.862 109.185C487.693 110.739 489.074 112.755 489.862 115.024C490.474 116.819 490.698 118.724 490.519 120.612C490.34 122.5 489.761 124.329 488.822 125.977C488.191 127.1 487.387 128.117 486.438 128.988C486.105 129.308 485.746 129.6 485.364 129.861C485.094 130.083 484.801 130.276 484.491 130.437L483.949 130.76C483.845 130.865 483.775 130.9 483.766 130.891Z" stroke="#5251A2" stroke-width="0.75" stroke-miterlimit="10"/>
<path d="M506.55 111.271L506.253 111.489L505.38 112.126L501.738 114.64V114.57C501.93 116.22 502.166 118.262 502.437 120.68L502.384 120.601L507.45 123.324H507.528V123.411C506.995 125.419 506.393 127.671 505.782 130.079V130.193H505.677L499.791 129.774L499.93 129.695L496.944 134.819V134.661C497.861 136.241 498.856 137.978 499.887 139.767L499.965 139.898L499.843 139.985L494.045 144.349L493.94 144.428L493.826 144.341L489.233 140.684H489.442L483.836 143.913L483.932 143.773C483.679 145.458 483.39 147.326 483.059 149.228V149.385H482.971L476.43 149.839H476.264L476.212 149.682L474.378 143.573L474.527 143.721L468.641 142.133L468.859 142.071L464.615 146.654L464.484 146.802L464.327 146.688L458.886 142.857L458.746 142.752L458.807 142.595C459.454 140.85 460.152 138.886 460.86 136.939L460.903 137.166L456.973 132.628L457.174 132.706L451.245 133.632H451.07L451 133.466C450.127 131.502 449.193 129.381 448.258 127.26L448.171 127.068L448.354 126.964L448.476 126.894C450.354 125.82 452.232 124.747 454.083 123.673L453.969 123.891C453.812 121.867 453.655 119.859 453.498 117.869L453.646 118.061L448.04 116.001L447.865 115.932V115.748C448.383 113.334 448.89 110.945 449.385 108.583V108.399H449.577L455.384 108.705L455.192 108.81L458.397 103.992V104.201C457.445 102.159 456.519 100.16 455.602 98.1792L455.533 98.0221L455.672 97.9261L461.052 94.016L461.174 93.9288L461.296 94.0073L466.588 97.769H466.388L471.391 95.2292L471.287 95.395C471.418 93.44 471.549 91.5548 471.671 89.7045V89.5474H471.828L478.544 88.8492H478.692V88.9888L480.928 95.4911L480.797 95.3776L486.325 96.3551H486.176L490.385 92.1396L490.473 92.0523L490.578 92.1134L496.193 95.8576L496.28 95.9187V96.0234C495.468 97.9785 494.769 99.6542 494.123 101.26V101.138L498.271 106.375H498.184L503.232 105.659H503.275V105.703L505.677 109.97L506.253 111.009C506.384 111.236 506.436 111.341 506.436 111.341C506.436 111.341 506.358 111.227 506.218 111C506.078 110.773 505.878 110.416 505.607 109.97L503.153 105.772H503.223L498.184 106.532H498.132V106.488L493.949 101.251V101.199V101.129C494.595 99.5669 495.276 97.8825 496.079 95.8925L496.132 96.0496L490.499 92.3403H490.682C489.372 93.6757 488.001 95.0634 486.491 96.582L486.438 96.6431H486.351L480.893 95.718H480.797V95.622C480.072 93.5447 479.33 91.389 478.544 89.1197L478.736 89.2419L472.012 89.9576L472.186 89.7831C472.064 91.6333 471.942 93.5186 471.811 95.4736V95.5783L471.715 95.6307L466.711 98.1792L466.597 98.2316L466.501 98.1618L461.139 94.3564H461.384L456.013 98.2752L456.083 98.0134L458.877 104.027L458.93 104.14L458.86 104.236L455.664 109.063L455.594 109.168H455.471L449.655 108.862L449.882 108.688C449.382 111.044 448.878 113.433 448.372 115.853L448.232 115.591L453.76 117.721L453.891 117.773V117.913C454.048 119.903 454.205 121.91 454.362 123.935V124.075L454.231 124.153L448.625 127.365L448.503 127.444L448.599 127.156L451.332 133.361L451.096 133.23L457.026 132.314H457.148L457.236 132.401C458.589 133.963 459.925 135.517 461.165 136.939L461.253 137.044V137.166C460.537 139.113 459.838 141.042 459.192 142.813L459.113 142.56L464.545 146.4H464.257L468.501 141.818L468.588 141.722H468.719L474.605 143.319H474.719V143.433C475.347 145.545 475.976 147.622 476.544 149.542L476.334 149.394L482.875 148.958L482.692 149.132C482.989 147.23 483.277 145.362 483.565 143.677V143.581L483.644 143.538L489.259 140.326L489.364 140.265L489.469 140.343L494.053 144.009H493.835L499.642 139.697V139.916C498.612 138.17 497.616 136.425 496.717 134.801L496.673 134.723L496.717 134.644L499.581 129.53L499.634 129.451H499.721L505.607 129.896L505.467 129.992C506.122 127.583 506.742 125.34 507.292 123.333L507.345 123.464L502.306 120.714V120.662L501.66 114.553V114.509L505.319 112.083L506.262 111.463L506.55 111.271Z" stroke="#5251A2" stroke-width="0.75" stroke-miterlimit="10"/>
<path d="M578.509 293.552C578.509 293.682 454.109 293.778 300.69 293.778C147.271 293.778 22.8452 293.682 22.8452 293.552C22.8452 293.421 147.219 293.325 300.69 293.325C454.161 293.325 578.509 293.429 578.509 293.552Z" fill="#263238"/>
<path d="M555.026 173.3L506.995 293.368H372.064L414.942 171.65C415.094 171.22 415.375 170.847 415.747 170.583C416.119 170.319 416.564 170.176 417.021 170.175L552.974 170.262C553.336 170.262 553.693 170.35 554.013 170.519C554.333 170.689 554.607 170.935 554.809 171.235C555.012 171.535 555.138 171.88 555.176 172.24C555.213 172.6 555.162 172.964 555.026 173.3Z" fill="#263238"/>
<path d="M547.594 176.765L503.502 284.335C503.407 284.566 503.244 284.763 503.036 284.902C502.827 285.04 502.582 285.113 502.332 285.112H379.469C379.27 285.116 379.073 285.072 378.894 284.983C378.716 284.895 378.562 284.764 378.445 284.603C378.328 284.441 378.252 284.254 378.224 284.057C378.195 283.86 378.215 283.659 378.282 283.471L417.379 175.901C417.467 175.659 417.627 175.451 417.838 175.304C418.049 175.157 418.3 175.079 418.558 175.08H546.459C546.659 175.082 546.856 175.132 547.032 175.226C547.209 175.321 547.359 175.457 547.471 175.623C547.583 175.789 547.653 175.98 547.674 176.179C547.696 176.378 547.668 176.579 547.594 176.765Z" fill="#455A64"/>
<path d="M506.96 293.56H505.764H323.666V285.112H501.983L506.96 293.56Z" fill="#263238"/>
<path d="M367.793 177.96C367.793 177.96 364.099 221.844 356.144 223.982C334.486 229.795 309.711 225.492 301.013 223.781C300.035 222.909 298.909 221.931 297.634 220.674C296.554 219.581 295.668 218.312 295.014 216.921C294.109 215.219 293.442 213.402 293.031 211.519C292.822 209.773 290.63 209.162 289.853 210.567C289.075 211.973 288.752 217.34 291.669 222.228C291.797 222.535 291.857 222.867 291.844 223.2C291.831 223.533 291.746 223.859 291.595 224.156C291.444 224.453 291.23 224.714 290.969 224.921C290.707 225.127 290.404 225.274 290.08 225.352C286.403 226.714 273.444 230.737 271.348 231.724C269.488 232.596 267.689 234.185 269.645 234.508C271.601 234.831 282.307 233.286 282.307 233.286C282.307 233.286 268.239 235.031 268.588 237.056C268.824 238.462 272.614 239.134 281.801 237.056C281.801 237.056 270.221 238.566 269.016 239.779C266.283 242.52 280.229 240.835 280.229 240.835C270.466 242.101 270.57 241.595 270.466 242.93C270.387 243.934 272.596 244.335 277.958 244.396C282.325 244.449 286.796 245.374 293.416 245.819C293.416 245.819 377.12 269.48 388.604 232.666C394.813 212.819 394.848 205.27 396.996 192.265" fill="#FFBE9D"/>
<path d="M286.089 240.216C286.089 240.46 283.146 240.975 279.434 241.359C275.723 241.743 272.701 241.865 272.692 241.612C272.684 241.359 275.653 240.853 279.347 240.469C283.041 240.085 286.054 239.971 286.089 240.216Z" fill="#A36957"/>
<path d="M286.001 236.419C286.001 236.664 282.892 237.388 279.015 238.034C275.138 238.68 271.889 239.011 271.845 238.776C271.802 238.54 274.946 237.807 278.832 237.152C282.718 236.498 285.958 236.175 286.001 236.419Z" fill="#A36957"/>
<path d="M285.879 232.474C285.923 232.719 282.962 233.452 279.268 234.115C275.574 234.778 272.535 235.119 272.492 234.883C272.448 234.647 275.408 233.897 279.102 233.234C282.796 232.57 285.835 232.23 285.879 232.474Z" fill="#A36957"/>
<path d="M476.422 252.862L481.862 284.536H396.987L400.236 259.923L476.422 252.862Z" fill="#263238"/>
<path d="M376.43 144.079C376.43 144.079 364.091 181.111 364.885 182.586L392.036 188.879L376.43 144.079Z" fill="#E8505B"/>
<path d="M376.43 144.079C376.43 144.079 364.091 181.111 364.885 182.586L392.036 188.879L376.43 144.079Z" fill="#CE3709"/>
<path d="M399.651 213.64L397.031 266.644L479.024 257.366L466.195 206.134C466.195 206.134 457.375 146.732 441.298 140.151C435.725 137.989 430.03 136.156 424.243 134.662C414.001 131.756 403.276 130.96 392.717 132.323L391.066 132.541C387.791 132.901 384.682 134.174 382.094 136.214C379.506 138.254 377.544 140.979 376.43 144.079C376.43 144.079 376.142 162.32 381.749 174.399L399.651 213.64Z" fill="#FE4400"/>
<path d="M419.064 283.532C418.942 283.532 418.758 279.229 418.662 273.931C418.566 268.634 418.584 264.331 418.662 264.331C418.741 264.331 418.977 268.642 419.073 273.931C419.169 279.22 419.221 283.532 419.064 283.532Z" fill="#455A64"/>
<path d="M423.588 266.705C423.588 266.705 423.675 266.565 423.946 266.469C424.19 266.4 424.447 266.39 424.696 266.439C424.945 266.489 425.179 266.596 425.379 266.752C425.579 266.909 425.739 267.11 425.847 267.34C425.954 267.57 426.006 267.821 425.998 268.075C425.988 268.46 425.862 268.833 425.636 269.144C425.41 269.456 425.095 269.692 424.732 269.821C424.368 269.924 423.984 269.925 423.62 269.824C423.256 269.722 422.927 269.522 422.671 269.245C422.468 269.024 422.317 268.76 422.231 268.473C422.145 268.185 422.125 267.882 422.173 267.586C422.356 266.574 422.976 266.233 422.985 266.286C422.732 266.693 422.566 267.147 422.496 267.621C422.474 267.888 422.517 268.155 422.62 268.402C422.724 268.648 422.885 268.866 423.091 269.038C423.296 269.209 423.54 269.328 423.801 269.385C424.062 269.443 424.334 269.436 424.592 269.367C424.864 269.266 425.101 269.09 425.278 268.86C425.454 268.63 425.561 268.355 425.588 268.066C425.603 267.829 425.551 267.592 425.439 267.382C425.326 267.172 425.157 266.998 424.95 266.879C424.535 266.649 424.047 266.586 423.588 266.705Z" fill="#455A64"/>
<path d="M477.775 271.889C477.675 271.986 477.564 272.071 477.443 272.142C477.127 272.379 476.797 272.597 476.456 272.797C475.205 273.551 473.875 274.168 472.492 274.638C467.902 276.244 462.913 276.305 458.286 274.813C453.658 273.321 449.646 270.357 446.861 266.373C446.017 265.187 445.302 263.914 444.73 262.576C444.512 262.105 444.398 261.704 444.302 261.468C444.206 261.232 444.18 261.075 444.197 261.067C444.215 261.058 444.451 261.581 444.887 262.498C446.456 265.72 448.737 268.544 451.559 270.754C455.686 274.023 460.856 275.691 466.117 275.45C468.251 275.368 470.364 274.992 472.396 274.333C473.767 273.894 475.095 273.327 476.36 272.64C476.816 272.36 477.288 272.11 477.775 271.889Z" fill="#455A64"/>
<path d="M411.571 167.635C411.274 167.981 410.947 168.299 410.593 168.587C409.673 169.419 408.695 170.186 407.668 170.882C406.136 171.959 404.37 172.656 402.515 172.916C400.225 173.047 397.939 172.587 395.878 171.58C393.669 170.611 391.687 169.486 389.765 168.787C388.084 168.104 386.26 167.846 384.456 168.037C383.241 168.172 382.083 168.62 381.094 169.337C380.412 169.861 380.124 170.262 380.089 170.21C380.137 170.101 380.202 170.001 380.281 169.913C380.49 169.644 380.727 169.398 380.989 169.18C381.971 168.381 383.156 167.871 384.412 167.705C386.27 167.461 388.16 167.692 389.905 168.377C391.887 169.067 393.887 170.193 396.062 171.144C398.053 172.126 400.262 172.585 402.48 172.479C404.278 172.25 405.998 171.605 407.502 170.594C408.536 169.927 409.533 169.204 410.488 168.43C410.828 168.137 411.19 167.872 411.571 167.635Z" fill="#FAFAFA"/>
<path d="M390.062 146.907C389.629 147.463 389.096 147.933 388.49 148.294C385.645 150.226 382.163 150.986 378.771 150.415C378.069 150.34 377.387 150.133 376.762 149.804C376.762 149.735 377.557 149.953 378.814 150.101C382.124 150.476 385.465 149.745 388.316 148.024C389.407 147.369 390.01 146.846 390.062 146.907Z" fill="#FAFAFA"/>
<path d="M464.195 196.839C464.018 197.012 463.828 197.173 463.628 197.319C463.043 197.737 462.413 198.088 461.75 198.366C459.255 199.267 456.569 199.511 453.952 199.073C452.157 198.805 450.379 198.438 448.625 197.973C446.619 197.431 444.576 197.037 442.512 196.795C440.247 196.602 437.966 196.767 435.753 197.284C433.362 197.857 431.025 198.634 428.766 199.605C424.112 201.534 419.71 203.638 415.361 204.536C411.516 205.34 407.537 205.238 403.738 204.24C401.193 203.604 398.693 202.802 396.254 201.84L394.263 201.045C394.031 200.961 393.806 200.859 393.59 200.74C393.832 200.793 394.068 200.866 394.298 200.958L396.315 201.674C398.766 202.57 401.268 203.322 403.808 203.926C407.565 204.864 411.486 204.933 415.274 204.126C419.553 203.253 423.919 201.124 428.592 199.178C430.866 198.199 433.221 197.419 435.63 196.847C437.89 196.327 440.219 196.167 442.529 196.376C444.595 196.634 446.638 197.046 448.642 197.607C450.368 198.08 452.117 198.464 453.882 198.759C456.453 199.217 459.098 199.025 461.576 198.2C462.5 197.852 463.379 197.395 464.195 196.839Z" fill="#FAFAFA"/>
<path d="M399.214 229.254C399.214 229.254 399.214 229.193 399.328 229.088L399.703 228.608C400.221 228.032 400.807 227.522 401.45 227.089C402.471 226.401 403.594 225.877 404.777 225.536C406.346 225.089 407.976 224.888 409.606 224.942C413.257 224.995 417.37 226.504 421.684 228.433C423.929 229.466 426.229 230.375 428.574 231.156C431.072 232.01 433.71 232.38 436.346 232.247C438.968 231.965 441.499 231.126 443.769 229.786C446.031 228.564 448.092 227.168 450.179 226.024C452.139 224.879 454.267 224.048 456.484 223.563C458.869 223.14 461.318 223.254 463.654 223.896C465.989 224.537 468.152 225.691 469.985 227.272C470.785 227.945 471.492 228.72 472.09 229.577C472.033 229.536 471.982 229.486 471.942 229.428C471.828 229.315 471.697 229.166 471.54 228.992C471.329 228.744 471.102 228.51 470.859 228.294C470.548 227.982 470.219 227.691 469.872 227.421C467.692 225.635 465.092 224.433 462.318 223.93C460.412 223.585 458.46 223.585 456.554 223.93C454.383 224.418 452.302 225.245 450.389 226.382C448.319 227.526 446.267 228.931 443.988 230.17C441.663 231.547 439.069 232.408 436.381 232.692C433.688 232.825 430.995 232.445 428.443 231.575C426.086 230.779 423.774 229.856 421.518 228.809C417.221 226.871 413.169 225.361 409.589 225.256C407.991 225.191 406.392 225.368 404.847 225.78C403.681 226.094 402.571 226.585 401.555 227.238C400.691 227.806 399.904 228.484 399.214 229.254Z" fill="#FAFAFA"/>
<path d="M473.269 257.253C472.858 256.259 472.34 255.314 471.723 254.433C469.926 252.102 467.438 250.398 464.615 249.563C462.692 248.947 460.676 248.678 458.659 248.769C456.341 248.879 454.048 249.293 451.838 250C449.388 250.779 446.995 251.73 444.678 252.845C442.25 253.971 439.77 255.236 437.15 256.38C434.627 257.531 431.994 258.423 429.29 259.042C426.738 259.547 424.131 259.717 421.535 259.548C417.149 259.184 412.839 258.181 408.742 256.572C405.249 255.254 402.507 253.953 400.612 253.081L398.455 252.033L397.896 251.745L397.712 251.632C397.785 251.643 397.856 251.667 397.922 251.702L398.489 251.946L400.69 252.924C402.594 253.796 405.353 254.992 408.855 256.275C412.928 257.824 417.2 258.785 421.544 259.129C424.1 259.289 426.666 259.112 429.177 258.605C431.879 258.002 434.513 257.125 437.036 255.987C439.656 254.852 442.119 253.596 444.564 252.496C446.901 251.378 449.314 250.427 451.786 249.651C454.031 248.943 456.36 248.538 458.711 248.446C460.785 248.369 462.855 248.665 464.824 249.319C467.691 250.198 470.199 251.976 471.976 254.39C472.436 255.052 472.82 255.763 473.12 256.511C473.199 256.755 473.269 256.947 473.321 257.104C473.308 257.155 473.291 257.205 473.269 257.253Z" fill="#FAFAFA"/>
<path d="M410.777 264.889C419.099 264.558 427.43 261.782 433.796 256.415C442.529 249.066 446.817 237.528 447.769 226.164C448.721 214.8 446.695 203.472 444.678 192.213C436.884 203.125 430.552 215.008 425.841 227.56C422.749 235.799 420.033 244.798 413.187 250.323C410.742 252.295 407.825 253.77 405.912 256.258C404 258.745 403.589 262.847 406.131 264.697L408.384 265.43" fill="#CE3709"/>
<path d="M350.642 265.326C352.301 266.13 354.065 266.697 355.882 267.01C357.316 267.321 358.792 267.386 360.248 267.202C360.929 267.115 361.567 267.019 362.178 266.923C364.99 266.469 367.618 265.239 369.767 263.371C379.225 255.158 404.83 229.201 409.397 223.327C414.898 216.267 416.444 169.59 416.444 169.59L447.166 174.618C447.166 174.618 446.616 208.255 439.062 234.429C434.251 251.073 376.186 285.312 376.116 285.347C371.811 290.06 366.973 295.166 363.995 297.654C357.803 302.838 357.331 302.297 356.851 301.468C355.559 299.26 367.392 291.937 363.933 292.033C360.475 292.129 350.502 302.672 349.245 300.307C347.603 297.217 360.143 289.781 361.156 289.074C362.169 288.367 361.156 286.875 360.283 287.564C359.017 288.55 345.437 298.614 343.813 295.603C342.94 293.927 346.057 292.574 346.057 292.574C346.057 292.574 359.445 284.099 358.624 282.703C357.803 281.306 349.769 285.993 347.166 287.774C344.564 289.554 342.73 289.031 342.887 287.25C343.001 286.037 350.817 280.39 353.428 278.688C356.039 276.986 363.261 272.448 357.873 271.793C352.485 271.138 348.599 268.59 348.022 267.176C347.446 265.762 349.201 264.436 350.642 265.326Z" fill="#FFBE9D"/>
<path d="M428.015 139.174C430.907 138.581 433.902 138.726 436.724 139.594C439.546 140.461 442.104 142.025 444.162 144.14C447.743 147.867 451.341 154.107 451.035 163.996C450.433 183.293 448.913 189.874 448.913 189.874L411.056 188.565L412.541 156.141C412.541 156.141 415.466 141.818 428.015 139.174Z" fill="#CE3709"/>
<path opacity="0.2" d="M428.015 139.174C430.907 138.581 433.902 138.726 436.724 139.594C439.546 140.461 442.104 142.025 444.162 144.14C447.743 147.867 451.393 154.613 451.087 164.485C450.494 183.782 448.913 189.874 448.913 189.874L411.056 188.565L412.593 156.638C412.593 156.638 415.466 141.818 428.015 139.174Z" fill="#CE3709"/>
<path d="M450.345 178.632C450.345 178.676 449.909 178.248 449.07 177.655C447.858 176.845 446.513 176.255 445.097 175.909C442.997 175.385 440.809 175.31 438.678 175.691C436.092 176.298 433.582 177.191 431.194 178.353C428.772 179.522 426.25 180.471 423.658 181.19C421.506 181.695 419.28 181.802 417.09 181.504C415.611 181.311 414.182 180.837 412.881 180.107C412.531 179.905 412.198 179.675 411.886 179.418C411.769 179.338 411.664 179.245 411.571 179.139C411.571 179.095 412.043 179.47 412.96 179.95C414.27 180.598 415.682 181.017 417.134 181.19C419.284 181.434 421.46 181.295 423.561 180.779C426.122 180.047 428.614 179.095 431.011 177.934C433.434 176.763 435.983 175.87 438.608 175.272C440.795 174.905 443.036 175.019 445.175 175.604C446.616 175.988 447.97 176.642 449.166 177.533C449.48 177.778 449.772 178.05 450.04 178.344C450.151 178.429 450.254 178.526 450.345 178.632Z" fill="#FAFAFA"/>
<path d="M448.799 151.314C448.398 151.525 447.981 151.703 447.551 151.847C447.149 152.012 446.677 152.178 446.049 152.362C445.42 152.545 444.782 152.754 444.023 152.92C442.246 153.355 440.444 153.673 438.626 153.872C436.395 154.094 434.152 154.176 431.91 154.116C429.672 154.029 427.442 153.784 425.238 153.383C423.44 153.044 421.67 152.565 419.946 151.951C419.279 151.729 418.626 151.467 417.99 151.166C417.498 150.964 417.02 150.731 416.558 150.468C416.148 150.275 415.759 150.041 415.396 149.769C415.823 149.916 416.238 150.097 416.636 150.311C417.107 150.544 417.591 150.751 418.086 150.93C418.727 151.204 419.383 151.443 420.051 151.646C421.764 152.21 423.515 152.653 425.291 152.973C427.477 153.345 429.685 153.575 431.901 153.662C434.122 153.724 436.344 153.654 438.556 153.453C440.359 153.267 442.149 152.975 443.918 152.58C444.686 152.431 445.359 152.257 445.953 152.091C446.546 151.925 447.062 151.794 447.472 151.655C447.903 151.499 448.347 151.385 448.799 151.314Z" fill="#FAFAFA"/>
<path d="M408.043 97.1843C407.991 97.6791 408.081 98.1786 408.302 98.6243C408.523 99.0699 408.867 99.4433 409.293 99.7006C409.72 99.958 410.21 100.089 410.708 100.077C411.206 100.066 411.69 99.9132 412.104 99.6368C413.658 98.5197 413.501 96.1457 412.881 94.4001C412.261 92.6546 411.318 90.717 411.824 88.8754C412.217 87.4702 413.379 86.4316 414.226 85.2446C414.97 84.2074 415.464 83.012 415.668 81.7522C415.873 80.4923 415.783 79.2023 415.405 77.9831C414.992 76.7759 414.256 75.7048 413.277 74.8862C412.298 74.0676 411.113 73.5328 409.851 73.3399C407.275 73.0431 404.34 74.2738 402.227 72.7726C400.69 71.6903 400.271 69.5782 398.996 68.1905C397.022 66.0434 393.573 66.1918 390.77 67.0297C387.966 67.8676 385.207 69.2465 382.29 68.9847C379.862 68.7752 377.679 67.4399 375.304 66.7766C372.741 66.0693 370.022 66.1773 367.524 67.0856C365.026 67.9938 362.873 69.6572 361.364 71.8445C359.856 74.0319 359.066 76.6346 359.106 79.291C359.145 81.9474 360.011 84.5256 361.584 86.6673C362.663 88.2552 364.268 89.4112 366.117 89.9315" fill="#263238"/>
<path d="M403.764 151.943C399.98 152.636 396.076 151.802 392.906 149.623C389.737 147.443 387.562 144.097 386.857 140.317C385.984 135.822 385.32 132.026 385.32 132.026C385.32 132.026 373.627 132.2 371.54 120.837C369.453 109.473 367.121 84.5115 367.121 84.5115L366.973 83.0016C379.199 75.0855 394.918 75.6528 407.807 82.4692L408.192 84.817L415.588 136.032C416 139.687 415.009 143.363 412.814 146.316C410.619 149.27 407.385 151.28 403.764 151.943Z" fill="#FFBE9D"/>
<path d="M390.997 112.196L383.687 115.74C384.354 116.479 385.253 116.969 386.236 117.128C387.219 117.287 388.227 117.105 389.093 116.612C392.289 114.762 390.997 112.196 390.997 112.196Z" fill="white"/>
<path d="M385.268 131.869C390.545 131.069 395.466 128.721 399.406 125.122C399.406 125.122 397.293 133.911 385.748 134.819L385.268 131.869Z" fill="#EB996E"/>
<path d="M408.742 92.48C408.978 92.3578 417.125 90.4028 417.396 100.23C417.667 110.058 407.641 107.082 407.615 106.802C407.589 106.523 408.742 92.48 408.742 92.48Z" fill="#FFBE9D"/>
<path d="M410.567 103.268C410.611 103.268 410.742 103.381 411.039 103.512C411.451 103.675 411.91 103.675 412.322 103.512C413.344 103.102 414.174 101.426 414.174 99.6543C414.175 98.8098 413.99 97.9755 413.632 97.2105C413.53 96.907 413.356 96.6327 413.125 96.4109C412.894 96.189 412.612 96.0262 412.305 95.9362C412.107 95.8905 411.899 95.9151 411.717 96.0059C411.536 96.0967 411.391 96.248 411.309 96.4337C411.178 96.713 411.248 96.905 411.196 96.9225C411.143 96.9399 410.977 96.7654 411.047 96.3552C411.1 96.11 411.232 95.889 411.423 95.7268C411.687 95.5175 412.022 95.4204 412.357 95.4562C412.764 95.5232 413.147 95.6943 413.468 95.9527C413.79 96.2112 414.039 96.5482 414.191 96.9312C414.633 97.7709 414.864 98.7055 414.864 99.6543C414.864 101.635 413.885 103.521 412.479 103.966C412.218 104.051 411.941 104.076 411.668 104.038C411.396 104.001 411.136 103.901 410.908 103.748C410.593 103.503 410.532 103.285 410.567 103.268Z" fill="#EB996E"/>
<path d="M365.147 89.6086C365.147 89.6086 372.509 92 380.866 86.292C386.359 82.539 393.04 80.1825 394.717 81.1426C396.394 82.1027 397.546 88.1249 403.633 89.1198C403.633 89.1198 404.812 100.763 409.379 99.7154C413.947 98.6681 408.602 81.1251 408.602 81.1251L396.979 74.9458L384.316 74.3087L370.911 77.6864L363.82 83.4293L365.147 89.6086Z" fill="#263238"/>
<path d="M408.113 71.2801C406.373 71.5983 404.79 72.4893 403.616 73.8112C403.979 72.9511 404.618 72.236 405.432 71.7779C406.246 71.3198 407.189 71.1447 408.113 71.2801Z" fill="#263238"/>
<path d="M402.734 67.4137C403.288 68.5293 403.558 69.7645 403.52 71.0096C403.536 71.9017 403.388 72.7893 403.083 73.6279C402.985 73.9834 402.802 74.3099 402.55 74.5792C402.835 73.4173 403.008 72.2307 403.065 71.0357C403.03 69.0458 402.629 67.4486 402.734 67.4137Z" fill="#263238"/>
<path d="M370.614 101.059C370.635 101.503 370.83 101.921 371.157 102.222C371.484 102.522 371.917 102.682 372.361 102.665C372.574 102.67 372.786 102.632 372.984 102.554C373.183 102.476 373.364 102.359 373.516 102.211C373.669 102.062 373.791 101.884 373.874 101.688C373.958 101.492 374.001 101.281 374.002 101.068C373.984 100.634 373.797 100.223 373.48 99.9251C373.164 99.6267 372.743 99.4638 372.308 99.471C372.091 99.4579 371.874 99.4893 371.669 99.5631C371.465 99.6369 371.277 99.7517 371.119 99.9004C370.96 100.049 370.834 100.229 370.747 100.428C370.66 100.627 370.615 100.842 370.614 101.059Z" fill="#263238"/>
<path d="M370.57 99.7764C370.789 99.9859 372.003 98.9822 373.802 98.9037C375.601 98.8251 376.963 99.6543 377.146 99.4186C377.234 99.3226 377.007 98.9386 376.413 98.5458C375.607 98.0483 374.668 97.8106 373.723 97.8651C372.788 97.9057 371.891 98.2453 371.164 98.8338C370.632 99.279 370.466 99.6804 370.57 99.7764Z" fill="#263238"/>
<path d="M388.307 100.134C388.345 100.564 388.548 100.963 388.874 101.246C389.199 101.529 389.622 101.675 390.053 101.653C390.267 101.65 390.478 101.604 390.674 101.517C390.869 101.431 391.045 101.307 391.192 101.151C391.338 100.996 391.452 100.813 391.527 100.613C391.601 100.412 391.635 100.199 391.625 99.9859C391.588 99.5561 391.384 99.1577 391.059 98.8744C390.733 98.5912 390.31 98.4453 389.879 98.4673C389.665 98.4693 389.453 98.5146 389.257 98.6004C389.061 98.6861 388.884 98.8105 388.738 98.9662C388.591 99.1219 388.477 99.3056 388.403 99.5063C388.329 99.707 388.296 99.9206 388.307 100.134Z" fill="#263238"/>
<path d="M387.783 98.8338C388.01 99.0259 389.18 97.9611 390.97 97.804C392.761 97.6469 394.167 98.3975 394.341 98.1618C394.516 97.9261 394.175 97.6818 393.564 97.289C392.735 96.827 391.784 96.6319 390.839 96.7304C389.91 96.8231 389.034 97.2047 388.333 97.8214C387.853 98.3364 387.696 98.7466 387.783 98.8338Z" fill="#263238"/>
<path d="M382.604 112.737C381.631 112.535 380.637 112.456 379.644 112.502C379.181 112.502 378.771 112.449 378.631 112.144C378.549 111.674 378.61 111.191 378.806 110.756C379.129 109.613 379.469 108.408 379.819 107.143C381.216 102.011 382.176 97.804 381.967 97.7429C381.757 97.6818 380.465 101.828 379.05 106.951C378.718 108.216 378.395 109.421 378.098 110.582C377.862 111.16 377.84 111.804 378.037 112.397C378.12 112.55 378.236 112.682 378.377 112.785C378.517 112.887 378.678 112.957 378.849 112.99C379.11 113.024 379.374 113.024 379.635 112.99C380.632 113.036 381.63 112.951 382.604 112.737Z" fill="#263238"/>
<path d="M386.7 93.4837C386.927 93.955 388.691 93.5535 390.813 93.5972C392.935 93.6408 394.699 94.0597 394.935 93.5972C395.04 93.379 394.699 92.9513 393.966 92.5498C392.996 92.0596 391.927 91.7969 390.841 91.7818C389.754 91.7667 388.679 91.9995 387.696 92.4626C386.953 92.8466 386.604 93.2655 386.7 93.4837Z" fill="#263238"/>
<path d="M370.317 94.9674C370.675 95.3427 371.863 94.8016 373.347 94.6358C374.832 94.47 376.116 94.6358 376.36 94.1907C376.465 93.9725 376.229 93.5797 375.644 93.2481C374.86 92.8625 373.98 92.7164 373.113 92.8282C372.246 92.94 371.432 93.3046 370.771 93.8765C370.317 94.3478 370.169 94.7842 370.317 94.9674Z" fill="#263238"/>
<path d="M53.5674 176.616L100.367 293.569H231.727L189.992 175.045C189.847 174.624 189.573 174.259 189.21 174.001C188.847 173.743 188.412 173.604 187.966 173.605L55.5585 173.692C55.2103 173.694 54.8678 173.781 54.5604 173.944C54.2531 174.108 53.9901 174.344 53.7942 174.631C53.5983 174.919 53.4752 175.25 53.4357 175.596C53.3962 175.942 53.4414 176.292 53.5674 176.616Z" fill="#263238"/>
<path d="M60.772 179.811L103.746 284.544C103.84 284.768 103.998 284.959 104.2 285.092C104.402 285.226 104.639 285.296 104.882 285.295H224.522C224.715 285.297 224.906 285.253 225.078 285.166C225.251 285.079 225.4 284.952 225.513 284.795C225.626 284.639 225.7 284.457 225.728 284.266C225.756 284.075 225.738 283.88 225.675 283.698L187.599 178.964C187.511 178.73 187.353 178.529 187.147 178.387C186.941 178.245 186.697 178.169 186.447 178.17H61.9073C61.7096 178.166 61.5139 178.211 61.3379 178.3C61.1618 178.39 61.0107 178.523 60.8983 178.685C60.7858 178.848 60.7154 179.036 60.6934 179.232C60.6713 179.428 60.6984 179.627 60.772 179.811Z" fill="#455A64"/>
<path d="M100.367 293.56H101.528H278.884V285.33H105.214L100.367 293.56Z" fill="#263238"/>
<path d="M305.694 179.662C305.694 179.662 308.969 175.412 306.759 170.515C304.55 165.619 298.603 160.042 298.603 160.042C296.856 159.597 299.162 149.734 300.166 146.462C301.17 143.189 300.044 141.417 298.254 142.098C297.04 142.586 293.73 152.51 292.813 155.757C292.315 157.502 291.381 160.993 290.246 162.931C289.302 164.511 288.22 165.008 287.128 162.529C284.726 157.066 280.866 153.749 279.268 153.566C277.67 153.383 276.832 155.652 278.203 156.891C279.556 158.381 280.699 160.049 281.6 161.849C282.387 163.264 282.93 164.801 283.207 166.396C283.443 167.775 283.609 169.014 283.74 170.114C284.038 172.856 284.015 175.625 283.67 178.362L250.677 217.201L243.499 190.904L242.835 188.879L214.523 199.404C213.65 199.623 220.636 220.22 225.002 233.015C226.075 236.148 227.806 239.014 230.079 241.423C232.352 243.832 235.114 245.726 238.18 246.98C242.998 248.951 248.339 249.248 253.346 247.824C258.353 246.4 262.736 243.336 265.794 239.125L301.013 188.023L300.253 187.508L300.97 187.831L305.694 179.662Z" fill="#B78876"/>
<path d="M301.275 162.582C301.221 162.912 301.127 163.234 300.996 163.542L300.061 166.099L298.638 169.904C298.4 170.688 298.038 171.428 297.564 172.095C297.254 172.461 296.823 172.706 296.35 172.785C296.097 172.818 295.839 172.785 295.602 172.69C295.365 172.596 295.157 172.442 294.996 172.244C294.688 171.868 294.51 171.402 294.49 170.917C294.48 170.476 294.53 170.035 294.638 169.608C294.839 168.796 295.049 168.028 295.258 167.295C295.686 165.829 296.131 164.537 296.542 163.463C296.952 162.39 297.319 161.526 297.59 160.941C297.708 160.63 297.866 160.337 298.061 160.068C297.992 160.395 297.889 160.713 297.756 161.02C297.537 161.622 297.214 162.495 296.883 163.577C296.551 164.659 296.097 165.96 295.695 167.417C295.494 168.15 295.293 168.918 295.11 169.712C294.975 170.081 294.929 170.477 294.976 170.866C295.023 171.256 295.161 171.63 295.38 171.956C295.491 172.096 295.636 172.206 295.801 172.275C295.966 172.343 296.146 172.369 296.324 172.348C296.689 172.283 297.022 172.095 297.267 171.816C297.709 171.186 298.051 170.491 298.28 169.756L299.799 166.021L300.865 163.516C300.969 163.191 301.107 162.878 301.275 162.582Z" fill="#AA6550"/>
<path d="M304.611 166.413C304.573 166.715 304.49 167.009 304.367 167.286C304.183 167.819 303.895 168.578 303.493 169.52C303.092 170.463 302.707 171.58 302.201 172.82C301.954 173.522 301.496 174.131 300.891 174.565C300.547 174.801 300.138 174.923 299.721 174.914C299.281 174.892 298.867 174.705 298.559 174.391C298.281 174.091 298.072 173.734 297.949 173.345C297.825 172.956 297.789 172.544 297.843 172.139C297.921 171.432 298.064 170.733 298.271 170.053C298.585 168.908 298.976 167.785 299.441 166.693C299.834 165.767 300.201 165.034 300.463 164.528C300.58 164.259 300.733 164.007 300.917 163.778C300.987 163.778 300.454 164.938 299.738 166.815C299.322 167.912 298.966 169.03 298.673 170.166C298.49 170.824 298.361 171.495 298.289 172.174C298.243 172.513 298.271 172.858 298.372 173.185C298.473 173.512 298.644 173.813 298.874 174.068C299.105 174.288 299.406 174.421 299.725 174.444C300.044 174.466 300.36 174.376 300.62 174.19C301.152 173.805 301.556 173.27 301.782 172.654L303.161 169.398C303.554 168.473 303.886 167.731 304.122 167.216C304.247 166.927 304.411 166.657 304.611 166.413Z" fill="#AA6550"/>
<path d="M306.445 170.297C306.304 171.146 306.082 171.979 305.781 172.785C305.546 173.553 305.284 174.443 304.908 175.447C304.734 176.034 304.336 176.53 303.799 176.826C303.638 176.895 303.464 176.931 303.288 176.931C303.112 176.931 302.939 176.895 302.777 176.826C302.453 176.696 302.177 176.467 301.991 176.171C301.685 175.609 301.563 174.965 301.642 174.329C301.709 172.81 302.099 171.322 302.786 169.966C303.072 169.4 303.415 168.865 303.808 168.368C304.087 168.019 304.271 167.845 304.297 167.862C304.323 167.88 303.72 168.674 303.074 170.105C302.705 170.945 302.433 171.823 302.262 172.724C302.167 173.251 302.108 173.785 302.087 174.321C302.028 174.864 302.128 175.413 302.376 175.9C302.488 176.117 302.678 176.284 302.907 176.368C303.137 176.452 303.39 176.447 303.616 176.354C304.039 176.107 304.351 175.707 304.489 175.237C304.821 174.286 305.135 173.413 305.423 172.619C305.697 171.817 306.039 171.041 306.445 170.297Z" fill="#AA6550"/>
<path d="M295.215 178.72C295.136 178.72 295.215 178.03 295.127 176.974C294.895 174.13 293.564 171.488 291.416 169.608C290.595 168.892 290.001 168.552 290.036 168.491C290.621 168.662 291.16 168.96 291.617 169.363C292.782 170.263 293.731 171.412 294.395 172.726C295.058 174.04 295.419 175.485 295.45 176.957C295.495 177.554 295.415 178.155 295.215 178.72Z" fill="#AA6550"/>
<path d="M111.824 284.544L197.214 284.981L198.28 269.925L131.665 240.303C125.895 247.286 122.064 255.662 120.557 264.593L111.824 284.544Z" fill="#263238"/>
<path d="M152.144 255.568C151.921 255.887 151.663 256.179 151.376 256.441C151.064 256.776 150.731 257.091 150.38 257.383C149.936 257.793 149.47 258.178 148.983 258.535C148.407 258.989 147.803 259.406 147.175 259.784C146.467 260.237 145.735 260.654 144.983 261.032C141.52 262.781 137.718 263.755 133.84 263.886C132.999 263.93 132.157 263.93 131.316 263.886C130.585 263.851 129.856 263.776 129.133 263.659C128.545 263.58 127.961 263.466 127.386 263.318C126.936 263.235 126.492 263.118 126.059 262.969C125.68 262.883 125.314 262.751 124.967 262.576C124.967 262.48 126.565 263.013 129.212 263.344C129.866 263.414 130.591 263.502 131.369 263.51C132.146 263.519 132.984 263.51 133.857 263.51C137.659 263.31 141.38 262.345 144.8 260.674C145.577 260.272 146.319 259.906 146.983 259.487C147.605 259.119 148.208 258.72 148.791 258.291C150.948 256.72 152.074 255.498 152.144 255.568Z" fill="#455A64"/>
<path d="M175.365 283.279C175.646 282.292 175.99 281.324 176.395 280.381C177.12 278.496 178.028 276.096 179.015 273.451C180.002 270.807 180.971 268.424 181.714 266.539C182.05 265.567 182.459 264.622 182.936 263.711C182.704 264.714 182.395 265.697 182.01 266.652C181.382 268.398 180.482 270.903 179.443 273.635C178.404 276.366 177.417 278.775 176.666 280.521C176.29 281.394 175.976 282.092 175.74 282.572C175.647 282.823 175.521 283.061 175.365 283.279Z" fill="#455A64"/>
<path d="M175.845 263.013C175.355 263.242 174.953 263.625 174.701 264.104C174.581 264.35 174.525 264.622 174.538 264.895C174.552 265.168 174.635 265.434 174.78 265.666C174.946 265.958 175.198 266.193 175.501 266.339C175.805 266.485 176.145 266.535 176.478 266.483C176.811 266.431 177.119 266.279 177.364 266.047C177.608 265.816 177.776 265.515 177.845 265.186C177.911 264.921 177.909 264.643 177.839 264.379C177.769 264.115 177.632 263.873 177.443 263.676C177.055 263.304 176.561 263.06 176.028 262.978C176.028 262.978 176.186 262.891 176.491 262.908C176.934 262.951 177.349 263.141 177.67 263.449C177.922 263.677 178.108 263.968 178.209 264.292C178.311 264.615 178.323 264.96 178.247 265.291C178.168 265.708 177.963 266.091 177.658 266.386C177.353 266.682 176.964 266.875 176.544 266.94C176.125 267.005 175.695 266.939 175.315 266.75C174.935 266.561 174.623 266.258 174.422 265.884C174.249 265.592 174.157 265.259 174.157 264.92C174.157 264.581 174.249 264.247 174.422 263.955C174.632 263.566 174.967 263.259 175.373 263.083C175.662 262.969 175.836 262.987 175.845 263.013Z" fill="#455A64"/>
<path d="M233.595 157.153C233.595 157.153 246.083 193.862 245.376 195.364L220.112 202.285L233.595 157.153Z" fill="#42428C"/>
<path opacity="0.2" d="M233.595 157.153C233.595 157.153 246.083 193.862 245.376 195.364L220.112 202.285L233.595 157.153Z" fill="#42428C"/>
<path d="M213.126 217.977L205.152 251.78L199.974 270.693L131.639 240.303L153.332 205.392C153.332 205.392 165.208 156.839 181.967 147.867C194.149 141.338 204.498 143.608 206.043 143.608L220.601 145.624C220.924 145.667 221.238 145.72 221.553 145.781C229.316 147.308 234.582 154.561 234.181 162.451C233.866 168.77 232.809 179.461 229.325 187.456C224.653 198.2 213.126 217.977 213.126 217.977Z" fill="#5251A2"/>
<path d="M202.506 263.109L202.009 262.882C201.521 262.656 201.049 262.399 200.594 262.114C198.839 261.017 197.305 259.602 196.07 257.942C194.083 255.312 192.917 252.155 192.717 248.865C192.591 246.803 192.991 244.743 193.878 242.878C194.361 241.856 195.037 240.937 195.869 240.172C196.762 239.364 197.863 238.823 199.048 238.61C200.026 238.511 201.013 238.606 201.953 238.889C202.894 239.172 203.769 239.638 204.53 240.26C205.29 240.882 205.92 241.647 206.383 242.513C206.847 243.379 207.135 244.327 207.231 245.304C207.339 246.722 207.08 248.143 206.48 249.432C205.86 250.785 204.948 251.983 203.81 252.941C202.671 253.9 201.334 254.594 199.895 254.975C196.829 255.745 193.591 255.437 190.726 254.102C187.76 252.679 185.166 250.587 183.146 247.992C182.079 246.687 181.115 245.301 180.264 243.847C179.374 242.361 178.709 240.752 178.29 239.072C177.863 237.355 177.843 235.562 178.229 233.836C178.619 232.048 179.578 230.434 180.962 229.236C181.689 228.645 182.528 228.205 183.428 227.945C184.328 227.684 185.272 227.606 186.202 227.718C187.144 227.822 188.045 228.161 188.822 228.704C189.581 229.27 190.183 230.021 190.569 230.886C191.302 232.636 191.336 234.601 190.665 236.376C189.974 238.087 188.815 239.569 187.32 240.652C184.447 242.645 181.124 243.894 177.649 244.289C174.175 244.683 170.656 244.21 167.409 242.913C164.379 241.614 161.77 239.498 159.873 236.803C158.045 234.25 157.015 231.213 156.912 228.075C156.871 226.569 157.114 225.067 157.628 223.65C158.128 222.265 158.994 221.04 160.135 220.107C161.262 219.225 162.635 218.716 164.064 218.649C164.756 218.606 165.45 218.7 166.105 218.926C166.76 219.152 167.363 219.506 167.881 219.967C168.841 220.892 169.436 222.131 169.557 223.458C169.694 224.709 169.507 225.974 169.016 227.133C168.003 229.25 166.191 230.879 163.977 231.663C162.057 232.388 160.022 232.761 157.969 232.762C154.688 232.805 151.436 232.144 148.433 230.825C146.544 229.997 144.781 228.91 143.193 227.595C142.643 227.141 142.25 226.775 141.996 226.522C141.743 226.269 141.612 226.129 141.612 226.129C141.612 226.129 141.761 226.243 142.031 226.487C142.302 226.731 142.695 227.089 143.245 227.525C147.431 230.841 152.638 232.603 157.978 232.509C159.997 232.497 161.997 232.119 163.881 231.392C164.899 230.986 165.848 230.424 166.693 229.725C167.581 228.998 168.279 228.066 168.728 227.011C169.193 225.909 169.367 224.707 169.234 223.519C169.115 222.275 168.555 221.114 167.654 220.246C167.168 219.821 166.604 219.496 165.992 219.289C165.381 219.082 164.735 218.998 164.091 219.042C162.736 219.105 161.435 219.59 160.37 220.43C159.29 221.326 158.47 222.496 157.995 223.816C157.502 225.186 157.274 226.638 157.323 228.093C157.426 231.156 158.435 234.12 160.222 236.611C162.074 239.248 164.627 241.316 167.592 242.581C170.766 243.849 174.205 244.311 177.6 243.924C180.996 243.537 184.243 242.314 187.049 240.364C188.477 239.332 189.584 237.92 190.246 236.288C190.877 234.627 190.846 232.787 190.158 231.148C189.804 230.346 189.244 229.654 188.534 229.14C187.814 228.657 186.986 228.357 186.124 228.267C185.262 228.173 184.39 228.251 183.558 228.495C182.726 228.739 181.951 229.145 181.277 229.69C179.955 230.823 179.036 232.355 178.657 234.054C178.281 235.72 178.299 237.45 178.709 239.107C179.513 242.424 181.443 245.295 183.478 247.835C185.454 250.38 187.991 252.435 190.892 253.84C193.668 255.139 196.806 255.447 199.782 254.713C201.167 254.352 202.454 253.687 203.55 252.768C204.647 251.849 205.525 250.697 206.122 249.397C206.706 248.172 206.959 246.815 206.855 245.461C206.768 244.53 206.497 243.626 206.06 242.799C205.622 241.973 205.026 241.241 204.304 240.645C203.583 240.049 202.752 239.601 201.857 239.327C200.963 239.053 200.023 238.957 199.092 239.046C197.963 239.244 196.913 239.755 196.062 240.521C195.255 241.263 194.597 242.152 194.123 243.14C193.254 244.958 192.855 246.966 192.961 248.979C193.138 252.229 194.268 255.355 196.21 257.968C197.418 259.627 198.919 261.053 200.638 262.175C201.083 262.464 201.544 262.729 202.017 262.969L202.506 263.109Z" fill="#FAFAFA"/>
<path d="M223.011 197.903C223.011 197.903 222.95 197.842 222.845 197.711L222.383 197.135C221.818 196.37 221.329 195.552 220.924 194.691C219.462 191.471 219.076 187.866 219.824 184.41C220.308 182.008 221.42 179.776 223.046 177.943C223.533 177.444 224.132 177.067 224.793 176.843C225.143 176.731 225.513 176.69 225.879 176.725C226.245 176.759 226.601 176.868 226.924 177.044C227.575 177.414 228.094 177.979 228.408 178.658C228.71 179.347 228.868 180.089 228.871 180.84C228.844 183.967 227.75 186.99 225.771 189.411C224.746 190.698 223.494 191.786 222.077 192.623C220.614 193.507 218.948 194 217.239 194.054C215.506 194.069 213.828 193.448 212.523 192.309C211.261 191.226 210.309 189.829 209.763 188.259C209.248 186.76 208.997 185.183 209.021 183.598C208.994 182.084 209.182 180.574 209.58 179.112C209.791 178.398 210.128 177.727 210.576 177.131C211.021 176.521 211.673 176.094 212.41 175.927C213.133 175.786 213.884 175.92 214.514 176.302C215.101 176.668 215.601 177.156 215.981 177.733C216.336 178.27 216.605 178.859 216.776 179.479C216.943 180.085 217.034 180.709 217.047 181.338C217.071 182.513 216.875 183.682 216.47 184.785C215.771 186.678 214.62 188.37 213.117 189.717C211.999 190.723 210.785 191.618 209.493 192.387C208.427 193.024 207.58 193.47 207.004 193.766L206.349 194.098C206.275 194.143 206.196 194.178 206.113 194.203L206.323 194.063L206.96 193.688C207.519 193.365 208.358 192.894 209.397 192.239C210.663 191.45 211.85 190.541 212.942 189.525C214.391 188.193 215.496 186.531 216.165 184.681C216.545 183.611 216.725 182.481 216.697 181.347C216.683 180.755 216.589 180.168 216.418 179.601C216.262 179.005 216.009 178.438 215.667 177.925C215.322 177.393 214.859 176.948 214.313 176.625C213.771 176.29 213.121 176.174 212.497 176.302C211.204 176.564 210.384 177.89 209.973 179.217C209.602 180.641 209.425 182.109 209.449 183.581C209.434 185.116 209.682 186.642 210.183 188.093C210.701 189.585 211.605 190.913 212.803 191.942C214.028 193.01 215.604 193.591 217.23 193.574C218.859 193.516 220.445 193.044 221.841 192.204C223.212 191.396 224.425 190.346 225.422 189.106C227.334 186.764 228.399 183.845 228.443 180.823C228.444 180.129 228.302 179.443 228.024 178.807C227.749 178.204 227.295 177.701 226.723 177.367C226.446 177.217 226.142 177.123 225.829 177.092C225.515 177.06 225.199 177.092 224.898 177.183C224.304 177.393 223.766 177.737 223.326 178.187C221.723 179.968 220.615 182.138 220.112 184.48C219.672 186.401 219.59 188.386 219.867 190.336C220.07 191.811 220.47 193.253 221.055 194.622C221.447 195.476 221.906 196.299 222.426 197.083L222.854 197.685C222.976 197.833 223.02 197.895 223.011 197.903Z" fill="#FAFAFA"/>
<path d="M202.096 187.631C202.096 187.631 202.096 218.667 209.868 221.608C231.011 229.603 256.301 227.761 265.2 226.923C266.265 226.181 267.496 225.274 268.894 224.139L271.837 221.687C271.837 221.687 285.809 224.349 285.6 225.082C285.39 225.815 280.15 227.508 274.753 226.295C274.595 226.592 274.502 226.92 274.483 227.256C274.463 227.592 274.516 227.929 274.639 228.242C274.762 228.556 274.951 228.839 275.194 229.072C275.437 229.306 275.728 229.484 276.046 229.594C279.6 231.34 292.193 236.655 294.193 237.859C295.939 238.933 297.616 240.696 295.625 240.818C293.634 240.94 283.041 238.331 283.041 238.331C283.041 238.331 297.014 241.473 296.437 243.48C296.053 244.868 292.184 245.164 283.172 242.171C283.172 242.171 294.638 244.842 295.73 246.186C298.201 249.205 284.377 246.116 284.377 246.116C294.044 248.368 293.983 247.861 293.983 249.197C293.983 250.209 291.704 250.392 286.325 249.921C281.958 249.537 277.356 250.017 270.666 249.799C270.666 249.799 184.307 265.169 176.448 227.089C172.203 206.553 172.954 198.977 172.081 185.711" fill="#B78876"/>
<path d="M278.517 244.903C278.456 245.138 281.399 245.95 285.084 246.718C288.77 247.486 291.783 247.888 291.826 247.643C291.87 247.399 288.927 246.587 285.268 245.828C281.609 245.068 278.622 244.658 278.517 244.903Z" fill="#AA6550"/>
<path d="M278.989 241.097C278.928 241.342 282.01 242.38 285.87 243.428C289.73 244.475 292.927 245.121 292.988 244.876C293.049 244.632 289.975 243.593 286.106 242.555C282.238 241.516 279.059 240.862 278.989 241.097Z" fill="#AA6550"/>
<path d="M279.495 237.152C279.426 237.397 282.325 238.427 285.966 239.465C289.608 240.504 292.621 241.15 292.691 240.905C292.761 240.661 289.861 239.631 286.22 238.592C282.578 237.554 279.574 236.917 279.495 237.152Z" fill="#AA6550"/>
<path d="M186.167 157.267C183.37 157.022 180.558 157.517 178.012 158.701C175.466 159.885 173.276 161.717 171.662 164.013C168.728 168.115 166.029 174.713 167.357 184.497C169.977 203.594 172.064 209.965 172.064 209.965L207.179 204.406L202.375 172.374C202.375 172.374 198.14 158.471 186.167 157.267Z" fill="#E8505B"/>
<path d="M186.167 157.267C183.37 157.022 180.558 157.517 178.012 158.701C175.466 159.885 173.276 161.717 171.662 164.013C168.728 168.115 166.029 174.713 167.357 184.497C169.977 203.594 172.064 209.965 172.064 209.965L207.179 204.406L202.375 172.374C202.375 172.374 198.14 158.471 186.167 157.267Z" fill="#42428C"/>
<path d="M274.64 222.271C274.387 222.261 274.136 222.229 273.889 222.175C273.4 222.097 272.666 221.948 271.749 221.818C271.252 221.859 270.777 222.047 270.387 222.359C269.883 222.702 269.401 223.078 268.946 223.485C267.835 224.485 266.783 225.549 265.794 226.67C263.075 227.468 260.261 227.897 257.427 227.944C254.092 227.983 250.758 227.846 247.437 227.534C239.385 226.967 232.067 226.522 226.81 225.789C224.19 225.44 222.068 225.073 220.618 224.768C219.885 224.628 219.335 224.48 218.95 224.392C218.754 224.355 218.561 224.299 218.374 224.226C218.574 224.229 218.774 224.255 218.968 224.305L220.645 224.593C222.103 224.846 224.225 225.16 226.854 225.466C232.093 226.112 239.403 226.513 247.472 227.08C250.965 227.351 254.327 227.595 257.419 227.517C260.215 227.484 262.996 227.084 265.689 226.33L265.61 226.382C266.62 225.262 267.699 224.207 268.841 223.223C269.311 222.811 269.814 222.437 270.343 222.106C270.778 221.772 271.306 221.582 271.854 221.564C272.797 221.739 273.496 221.914 273.985 222.018C274.211 222.082 274.43 222.167 274.64 222.271Z" fill="#AA6550"/>
<path d="M204.768 186.531C204.682 186.568 204.591 186.595 204.498 186.61L203.685 186.784L202.349 186.915C201.734 186.929 201.118 186.903 200.507 186.836C197.765 186.528 195.181 185.4 193.092 183.598C192.182 182.844 191.385 181.962 190.726 180.98C189.973 179.907 189.42 178.706 189.093 177.437C188.923 176.752 188.867 176.045 188.927 175.342C188.981 174.587 189.267 173.867 189.748 173.282C190.015 172.991 190.339 172.757 190.699 172.593C191.059 172.43 191.448 172.34 191.844 172.331C192.638 172.33 193.421 172.525 194.123 172.898C195.567 173.69 196.729 174.909 197.45 176.389C198.218 177.921 198.561 179.629 198.446 181.338C198.344 183.127 197.701 184.844 196.603 186.26C195.442 187.731 193.927 188.884 192.2 189.611C190.473 190.339 188.59 190.619 186.726 190.424C184.873 190.178 183.093 189.545 181.501 188.566C179.909 187.587 178.541 186.284 177.487 184.742C176.419 183.312 175.747 181.626 175.539 179.854C175.443 178.97 175.545 178.076 175.836 177.236C176.133 176.427 176.618 175.7 177.251 175.115C177.863 174.526 178.64 174.137 179.478 173.998C180.297 173.87 181.136 174.007 181.871 174.391C182.559 174.756 183.159 175.268 183.629 175.889C184.1 176.51 184.429 177.225 184.595 177.986C184.919 179.379 184.919 180.827 184.595 182.219C184.302 183.496 183.797 184.714 183.102 185.824C182.059 187.501 180.587 188.87 178.839 189.79C177.091 190.711 175.129 191.149 173.155 191.061C172.088 191.027 171.032 190.836 170.02 190.493C169.668 190.381 169.326 190.238 168.998 190.066C168.998 190.066 169.357 190.205 170.055 190.406C171.062 190.706 172.105 190.864 173.155 190.877C174.817 190.917 176.467 190.586 177.985 189.909C179.99 189.001 181.676 187.511 182.823 185.632C183.494 184.558 183.978 183.377 184.255 182.141C184.561 180.802 184.561 179.412 184.255 178.074C184.1 177.369 183.793 176.706 183.356 176.132C182.918 175.558 182.361 175.085 181.722 174.748C181.059 174.404 180.303 174.282 179.565 174.399C178.81 174.534 178.111 174.889 177.557 175.42C176.978 175.962 176.536 176.631 176.264 177.375C176.003 178.147 175.911 178.965 175.993 179.776C176.209 181.47 176.855 183.081 177.871 184.454C178.885 185.946 180.201 187.209 181.734 188.16C183.266 189.112 184.982 189.731 186.77 189.978C188.557 190.168 190.363 189.902 192.019 189.206C193.676 188.51 195.13 187.407 196.245 185.999C197.249 184.662 197.858 183.072 198.005 181.408C198.151 179.744 197.829 178.072 197.075 176.581C196.72 175.883 196.27 175.236 195.739 174.661C195.216 174.109 194.609 173.643 193.94 173.282C193.299 172.933 192.582 172.75 191.852 172.75C191.51 172.753 191.172 172.827 190.859 172.966C190.547 173.106 190.267 173.309 190.036 173.561C189.602 174.083 189.343 174.727 189.294 175.403C189.234 176.067 189.282 176.735 189.433 177.384C189.744 178.613 190.271 179.777 190.988 180.823C191.625 181.798 192.395 182.679 193.276 183.441C194.056 184.119 194.912 184.704 195.826 185.187C197.291 185.971 198.885 186.485 200.533 186.706C201.945 186.867 203.374 186.808 204.768 186.531Z" fill="#FAFAFA"/>
<path d="M186.298 89.7133C185.662 87.9197 184.539 86.339 183.053 85.1487C181.568 83.9584 179.78 83.2059 177.89 82.9755C176 82.7452 174.083 83.0463 172.355 83.8449C170.627 84.6436 169.156 85.9081 168.108 87.4964C166.78 89.5038 166.213 91.8603 165.374 94.1732C164.536 96.4861 163.305 98.7291 161.183 99.8725C158.702 101.217 155.436 100.745 153.183 102.491C150.668 104.367 150.563 108.513 152.712 110.835C154.86 113.156 158.484 113.662 161.445 112.502C160.729 114.336 160.325 116.277 160.248 118.245C160.219 119.231 160.433 120.21 160.871 121.094C161.31 121.979 161.96 122.741 162.763 123.315C163.643 123.786 164.63 124.024 165.628 124.006C166.626 123.987 167.603 123.714 168.466 123.211C170.184 122.187 171.659 120.802 172.789 119.152C173.071 120.539 173.557 121.877 174.229 123.123C174.57 123.744 175.04 124.283 175.608 124.705C176.177 125.126 176.829 125.421 177.522 125.567C178.388 125.642 179.258 125.479 180.038 125.096C180.818 124.713 181.479 124.125 181.949 123.394C182.869 121.914 183.417 120.235 183.547 118.498C184.053 114.233 183.775 109.911 182.727 105.746C182.072 103.076 181.146 100.344 181.661 97.6469C182.176 94.95 184.831 92.4102 187.46 93.2306" fill="#263238"/>
<path d="M151.873 108.12C152.009 108.215 152.159 108.286 152.319 108.33C152.761 108.49 153.213 108.621 153.672 108.722C155.8 109.173 158.005 109.099 160.098 108.506C162.19 107.913 164.106 106.819 165.68 105.319C166.793 104.255 167.72 103.013 168.422 101.644C169.137 100.168 169.653 98.6036 169.959 96.9922C170.243 95.4292 170.67 93.8954 171.234 92.4101C171.775 91.0665 172.682 89.9021 173.854 89.0499C174.851 88.3325 175.992 87.8401 177.198 87.6065C178.405 87.3729 179.647 87.4038 180.84 87.6971C182.467 88.1186 183.965 88.9305 185.207 90.0623C186.08 90.8653 186.482 91.4239 186.534 91.3802C186.586 91.3366 186.473 91.2144 186.298 90.9438C186.037 90.5597 185.745 90.1977 185.425 89.8616C184.2 88.6129 182.666 87.7097 180.98 87.2432C179.71 86.893 178.377 86.828 177.079 87.0528C175.781 87.2777 174.548 87.7868 173.47 88.5437C172.193 89.4574 171.2 90.7129 170.605 92.1657C170.012 93.6879 169.564 95.2631 169.269 96.87C168.978 98.4218 168.487 99.9295 167.811 101.356C166.914 103.117 165.637 104.656 164.073 105.864C162.508 107.071 160.695 107.916 158.764 108.338C157.11 108.691 155.406 108.745 153.733 108.495C152.537 108.269 151.891 108.059 151.873 108.12Z" fill="#455A64"/>
<path d="M174.902 124.241C174.902 124.241 175.033 124.179 175.251 124.005C175.582 123.757 175.876 123.463 176.124 123.132C177.013 121.925 177.551 120.497 177.679 119.004C177.874 116.814 177.622 114.608 176.937 112.519C176.273 110.163 175.251 107.666 174.858 104.943C174.46 102.39 174.967 99.7788 176.29 97.5596C177.363 95.7397 178.948 94.2764 180.849 93.3528C182.136 92.7262 183.527 92.3388 184.953 92.2094C185.485 92.2008 186.015 92.1629 186.543 92.096C186.022 91.9425 185.477 91.8863 184.936 91.9302C183.453 91.9565 181.99 92.2862 180.639 92.899C178.601 93.8044 176.886 95.3081 175.723 97.2105C174.284 99.56 173.727 102.344 174.151 105.066C174.561 107.92 175.618 110.424 176.308 112.729C177.002 114.735 177.298 116.858 177.181 118.978C177.114 120.404 176.674 121.788 175.906 122.992C175.304 123.822 174.849 124.188 174.902 124.241Z" fill="#455A64"/>
<path d="M233.211 107.701C240.058 91.8778 230.67 82.2423 224.557 78.786C220.915 76.7263 216.584 76.2899 212.41 76.1677C208.276 75.9683 204.134 76.3473 200.105 77.2936C196.06 78.2517 192.368 80.3298 189.451 83.2896C184.447 88.6485 183.338 96.5821 183.774 103.896C184.316 112.545 186.809 120.959 191.066 128.508C191.538 129.52 192.278 130.383 193.206 131.005C193.679 131.295 194.243 131.4 194.79 131.3C195.336 131.201 195.826 130.903 196.166 130.463" fill="#263238"/>
<path d="M221.474 147.212L221.221 138.886C221.221 138.886 230.958 137.271 232.975 124.572C233.98 118.253 233.665 107.902 233.133 99.4361C233.019 97.6264 232.54 95.8584 231.724 94.239C230.908 92.6196 229.771 91.1824 228.384 90.0143C226.996 88.8461 225.386 87.9712 223.651 87.4424C221.915 86.9137 220.09 86.742 218.287 86.9378L196.254 89.2682C195.14 89.384 194.111 89.9141 193.37 90.7531C192.629 91.5922 192.231 92.6791 192.254 93.7979L195.18 148.303C195.35 151.659 196.805 154.821 199.243 157.134C201.682 159.448 204.917 160.736 208.279 160.732C210.044 160.745 211.793 160.403 213.422 159.724C215.051 159.045 216.526 158.044 217.759 156.782C218.991 155.519 219.956 154.021 220.594 152.376C221.233 150.732 221.532 148.975 221.474 147.212Z" fill="#B78876"/>
<path d="M230.932 106.61C230.935 107.035 230.772 107.444 230.479 107.752C230.186 108.06 229.785 108.242 229.36 108.26C229.152 108.275 228.943 108.249 228.745 108.183C228.548 108.117 228.365 108.012 228.208 107.875C228.051 107.738 227.923 107.571 227.832 107.384C227.74 107.196 227.687 106.993 227.675 106.785C227.672 106.361 227.835 105.953 228.128 105.646C228.421 105.34 228.823 105.16 229.246 105.144C229.454 105.127 229.663 105.152 229.86 105.217C230.058 105.282 230.241 105.386 230.398 105.523C230.555 105.66 230.683 105.826 230.775 106.013C230.866 106.199 230.92 106.403 230.932 106.61Z" fill="#263238"/>
<path d="M230.888 104.786C230.679 104.996 229.447 104.079 227.692 104.088C225.937 104.097 224.653 104.961 224.47 104.751C224.286 104.542 224.574 104.271 225.142 103.879C225.91 103.343 226.826 103.063 227.762 103.076C228.672 103.074 229.559 103.361 230.294 103.896C230.801 104.306 230.984 104.69 230.888 104.786Z" fill="#263238"/>
<path d="M213.361 107.064C213.364 107.489 213.202 107.898 212.909 108.206C212.615 108.514 212.214 108.696 211.79 108.714C211.582 108.729 211.373 108.703 211.175 108.637C210.977 108.571 210.795 108.466 210.638 108.329C210.481 108.192 210.353 108.025 210.261 107.837C210.17 107.65 210.116 107.447 210.104 107.239C210.101 106.815 210.264 106.406 210.557 106.1C210.851 105.794 211.252 105.614 211.676 105.598C211.883 105.582 212.091 105.608 212.289 105.674C212.486 105.739 212.668 105.843 212.825 105.98C212.982 106.116 213.11 106.282 213.202 106.468C213.294 106.654 213.348 106.857 213.361 107.064Z" fill="#263238"/>
<path d="M213.65 105.109C213.449 105.319 212.209 104.411 210.462 104.411C208.716 104.411 207.423 105.284 207.231 105.083C207.039 104.882 207.344 104.603 207.903 104.21C208.672 103.678 209.588 103.4 210.523 103.416C211.435 103.417 212.324 103.704 213.064 104.236C213.562 104.629 213.746 105.013 213.65 105.109Z" fill="#263238"/>
<path d="M220.016 118.105C220.939 117.813 221.896 117.64 222.863 117.59C223.308 117.546 223.736 117.459 223.806 117.154C223.845 116.691 223.742 116.228 223.509 115.827L222.182 112.414C220.348 107.562 219.012 103.573 219.212 103.503C219.413 103.433 221.055 107.309 222.898 112.153C223.334 113.357 223.771 114.492 224.164 115.583C224.442 116.12 224.525 116.736 224.4 117.328C224.336 117.488 224.235 117.63 224.106 117.744C223.978 117.857 223.824 117.939 223.657 117.983C223.41 118.052 223.155 118.087 222.898 118.087C221.941 118.212 220.974 118.218 220.016 118.105Z" fill="#263238"/>
<path d="M221.221 138.842C215.239 138.932 209.35 137.361 204.209 134.304C204.209 134.304 208.34 143.032 221.055 141.836L221.221 138.842Z" fill="#AA6550"/>
<path d="M219.239 122.329C218.904 121.908 218.468 121.579 217.972 121.373C217.475 121.167 216.935 121.091 216.4 121.151C216.014 121.188 215.638 121.302 215.296 121.486C214.954 121.671 214.653 121.922 214.409 122.224C214.175 122.516 214.036 122.872 214.011 123.245C213.986 123.618 214.076 123.99 214.27 124.31C214.553 124.625 214.923 124.848 215.334 124.952C215.744 125.056 216.176 125.037 216.575 124.895C217.401 124.598 218.161 124.141 218.811 123.551C219.011 123.413 219.183 123.239 219.317 123.036C219.381 122.939 219.416 122.825 219.416 122.709C219.416 122.592 219.381 122.479 219.317 122.381" fill="#AA6550"/>
<path d="M214.872 119.283C215.152 119.283 215.16 121.168 216.785 122.512C218.409 123.857 220.444 123.656 220.461 123.926C220.461 124.04 220.007 124.293 219.151 124.319C218.035 124.332 216.95 123.952 216.086 123.246C215.256 122.573 214.722 121.601 214.601 120.54C214.514 119.781 214.724 119.283 214.872 119.283Z" fill="#263238"/>
<path d="M214.436 102.037C214.27 102.517 212.514 102.29 210.462 102.543C208.41 102.796 206.733 103.346 206.462 102.918C206.34 102.718 206.628 102.264 207.336 101.81C208.226 101.234 209.241 100.878 210.296 100.771C211.35 100.641 212.419 100.767 213.414 101.138C214.13 101.443 214.514 101.827 214.436 102.037Z" fill="#263238"/>
<path d="M230.242 99.7067C229.928 100.108 228.723 99.7067 227.273 99.7067C225.823 99.7067 224.592 99.9685 224.304 99.5495C224.181 99.3488 224.374 98.9561 224.915 98.572C225.631 98.1093 226.474 97.8833 227.325 97.9262C228.177 97.9395 229.004 98.217 229.692 98.7204C230.207 99.1044 230.373 99.5146 230.242 99.7067Z" fill="#263238"/>
<path d="M233.133 99.3924C230.914 88.5699 227.893 92.8553 224.478 87.6884C219.536 92.6895 208.157 98.4498 201.214 99.5844C200.493 99.638 199.796 99.8624 199.179 100.239C198.114 101.033 198.027 102.569 198.027 103.905C198.165 107.667 197.855 111.432 197.101 115.12C196.341 118.83 194.446 122.213 191.678 124.799C187.486 115.975 187.067 105.711 188.944 96.1195C189.713 92.2007 191.005 88.0986 194.132 85.6461C196.367 83.9005 199.249 83.1499 202.061 82.635C209.004 81.3607 216.348 81.0553 222.959 83.5078C229.57 85.9603 234.705 89.0325 235.587 96.0322" fill="#263238"/>
<path d="M185.119 91.7905C185.562 92.1038 186.04 92.3645 186.543 92.5673C187.106 92.8481 187.69 93.0844 188.289 93.2742L189.407 93.667L190.7 93.9899C192.831 94.4958 195.008 94.7882 197.197 94.8627C202.574 95.064 207.937 94.1733 212.96 92.2444C214.095 91.7381 215.195 91.3279 216.156 90.7781L217.553 90.0275L218.793 89.2333C219.502 88.7802 220.179 88.2786 220.819 87.7321L221.623 87.0862L222.234 86.4665C222.632 86.103 222.992 85.6994 223.308 85.2621C223.195 85.1399 221.649 86.868 218.514 88.8056L217.282 89.5474L215.885 90.2457C214.933 90.7693 213.842 91.1185 212.724 91.6247C210.245 92.5263 207.691 93.204 205.091 93.6495C202.493 94.0646 199.863 94.2544 197.232 94.2168C195.078 94.1675 192.933 93.925 190.822 93.4924C187.224 92.7418 185.18 91.6509 185.119 91.7905Z" fill="#455A64"/>
<path d="M188.717 83.2372C189.045 83.5711 189.411 83.8642 189.809 84.11C190.254 84.4412 190.728 84.7332 191.224 84.9827L192.141 85.4802L193.215 85.9341C197.193 87.4705 201.43 88.2261 205.694 88.1597C209.934 88.1684 214.162 87.697 218.296 86.7545C219.885 86.3967 221.151 86.0388 222.007 85.7508C222.467 85.6412 222.91 85.471 223.326 85.2446C223.326 85.1311 221.361 85.6635 218.199 86.257C214.078 87.0445 209.891 87.4419 205.694 87.444C201.511 87.5035 197.35 86.8331 193.398 85.4628C191.801 84.8008 190.239 84.058 188.717 83.2372Z" fill="#455A64"/>
<path d="M227.762 80.4792C227.762 80.4007 227.325 80.3134 226.644 80.4792C225.759 80.7404 224.973 81.2595 224.384 81.97C223.796 82.6805 223.434 83.5502 223.343 84.4678C223.299 85.1661 223.465 85.5763 223.553 85.5675C223.64 85.5588 223.675 83.8918 224.932 82.4255C226.19 80.9593 227.797 80.68 227.762 80.4792Z" fill="#455A64"/>
<path d="M162.126 94.1557C162.034 93.9799 161.906 93.8253 161.75 93.7019C161.309 93.3173 160.76 93.0767 160.178 93.0124C159.261 92.9028 158.335 93.1158 157.558 93.6146C157.026 93.952 156.599 94.4318 156.326 94.9995C156.053 95.5673 155.944 96.2002 156.013 96.8265C156.096 97.5796 156.362 98.3011 156.786 98.929C157.211 99.5569 157.781 100.072 158.449 100.431C159.242 100.801 160.121 100.948 160.992 100.858C161.863 100.767 162.692 100.442 163.392 99.9161C164.167 99.379 164.795 98.6557 165.217 97.8127C165.619 96.9337 165.848 95.9854 165.89 95.0198C166.021 93.0997 165.689 91.1621 166.038 89.2769C166.409 87.4995 167.226 85.8457 168.413 84.4714C169.6 83.0971 171.118 82.0476 172.823 81.4218C174.228 80.9416 175.723 80.7864 177.197 80.9678C178.67 81.1492 180.083 81.6626 181.329 82.4692C183.05 83.5434 184.44 85.0717 185.346 86.8855C185.975 88.1772 186.106 88.9889 186.22 88.9714C186.23 88.7739 186.206 88.5762 186.15 88.3867C186.037 87.8313 185.865 87.2899 185.635 86.772C184.79 84.8421 183.4 83.2009 181.635 82.0503C180.418 81.244 179.052 80.6891 177.618 80.4182C175.953 80.1149 174.238 80.2471 172.64 80.8022C170.813 81.447 169.183 82.5522 167.909 84.0109C166.635 85.4695 165.759 87.2323 165.366 89.1285C164.999 91.1883 165.366 93.1433 165.226 94.9587C165.195 95.8331 164.994 96.693 164.632 97.4898C164.271 98.2356 163.727 98.8781 163.051 99.3575C162.448 99.8218 161.731 100.116 160.976 100.21C160.22 100.303 159.453 100.193 158.755 99.8899C158.164 99.5817 157.656 99.1363 157.273 98.5911C156.89 98.0458 156.643 97.4168 156.554 96.7566C156.481 96.2151 156.56 95.664 156.782 95.1647C157.004 94.6654 157.361 94.2375 157.812 93.9288C158.514 93.4421 159.361 93.2111 160.213 93.2742C160.926 93.3644 161.594 93.6723 162.126 94.1557Z" fill="#263238"/>
<path d="M195.494 99.8812C195.926 99.9815 196.37 100.017 196.813 99.9859C197.686 99.9859 198.9 99.9859 200.428 99.9859C204.427 99.9192 208.392 99.2362 212.182 97.961C216.014 96.6294 219.36 94.1825 221.789 90.9351C222.5 89.9468 223.072 88.8662 223.492 87.7233C223.668 87.3123 223.78 86.8766 223.823 86.4316C223.142 87.9071 222.323 89.3155 221.378 90.6384C218.914 93.6917 215.644 95.9953 211.938 97.289C208.209 98.5356 204.328 99.2754 200.402 99.4884C198.76 99.5292 197.121 99.6603 195.494 99.8812Z" fill="#263238"/>
<path d="M177.461 130.9C177.461 130.9 177.504 131.415 178.063 132.104C178.474 132.581 178.978 132.97 179.544 133.246C180.11 133.522 180.726 133.68 181.355 133.71C183.239 133.761 185.067 133.072 186.447 131.79C187.318 131.041 187.873 129.99 188.001 128.849C188.07 128.213 187.949 127.572 187.654 127.005C187.359 126.438 186.902 125.971 186.342 125.663C185.737 125.383 185.047 125.35 184.419 125.572C183.79 125.794 183.274 126.252 182.98 126.85C182.863 127.149 182.814 127.47 182.837 127.79C182.86 128.11 182.953 128.421 183.111 128.7C183.386 129.224 183.824 129.644 184.36 129.896C185.323 130.301 186.405 130.319 187.381 129.949C188.208 129.661 188.954 129.179 189.556 128.543C190.438 127.652 191.006 126.496 191.171 125.253C191.265 124.809 191.238 124.348 191.093 123.918C191.032 123.918 191.093 124.398 190.901 125.209C190.642 126.347 190.052 127.382 189.206 128.186C188.639 128.739 187.947 129.149 187.189 129.381C186.362 129.675 185.455 129.647 184.648 129.303C184.241 129.125 183.913 128.806 183.725 128.404C183.537 128.003 183.502 127.546 183.626 127.121C183.853 126.706 184.228 126.392 184.676 126.241C185.125 126.091 185.614 126.115 186.045 126.309C186.474 126.559 186.82 126.928 187.044 127.371C187.267 127.814 187.357 128.312 187.303 128.805C187.187 129.775 186.721 130.668 185.993 131.319C184.745 132.506 183.095 133.18 181.373 133.204C180.211 133.185 179.1 132.727 178.264 131.921C177.688 131.328 177.522 130.874 177.461 130.9Z" fill="#263238"/>
<path d="M250.319 285.33C250.319 285.452 218.619 285.557 179.522 285.557C140.424 285.557 108.715 285.452 108.715 285.33C108.715 285.208 140.407 285.103 179.522 285.103C218.636 285.103 250.319 285.208 250.319 285.33Z" fill="#455A64"/>
<path d="M58.4927 222.795C60.3273 223.097 62.082 223.765 63.6516 224.761C65.2213 225.757 66.5735 227.059 67.6273 228.59C69.7132 231.666 71.0719 235.176 71.6007 238.854C72.8059 245.924 70.9196 253.962 68.3172 260.674C61.0864 257.314 57.2177 248.926 55.5235 244.545C52.8425 237.624 52.205 223.493 58.4927 222.812" fill="#FE4400"/>
<path d="M78.2901 270.013C77.3308 268.17 76.8756 266.106 76.9707 264.031C77.0658 261.956 77.7078 259.943 78.8316 258.195C79.9862 256.471 81.4726 254.993 83.2043 253.848C84.936 252.703 86.8783 251.914 88.9181 251.527C90.7956 251.134 92.9264 251.099 94.4198 252.304C95.0816 252.91 95.5691 253.682 95.8317 254.54C96.0943 255.398 96.1224 256.31 95.9131 257.183C95.461 258.928 94.5574 260.523 93.2932 261.808C89.2062 266.391 84.4032 270.074 78.264 270.013" fill="#FE4400"/>
<path d="M76.9802 293.141C76.8702 292.659 76.8029 292.169 76.7793 291.675C76.6745 290.636 76.5348 289.292 76.3689 287.678C76.0894 284.317 75.5916 279.526 76.7793 274.394C77.7094 270.001 79.7921 265.934 82.8137 262.611C83.7396 261.619 84.7803 260.74 85.9139 259.993C86.3069 259.722 86.6475 259.565 86.857 259.434C86.9697 259.368 87.0899 259.315 87.2151 259.277C85.7206 260.324 84.3366 261.52 83.0844 262.847C80.1984 266.179 78.2036 270.188 77.2858 274.499C76.1156 279.526 76.5523 284.256 76.7356 287.59C76.8492 289.284 76.9452 290.663 76.9802 291.614C77.0288 292.122 77.0288 292.633 76.9802 293.141Z" fill="#263238"/>
<path d="M59.9337 233.522C60.0344 233.711 60.1163 233.91 60.1782 234.115L60.7982 235.861C61.3222 237.362 62.0557 239.561 62.9378 242.276C64.6843 247.704 67.0422 255.245 69.435 263.633C71.8278 272.02 73.8014 279.657 75.1812 285.199C75.8624 287.974 76.3951 290.226 76.7444 291.78C76.9016 292.522 77.0326 293.115 77.1374 293.578C77.1912 293.786 77.2263 294 77.2422 294.215C77.1536 294.018 77.0834 293.814 77.0326 293.604C76.9103 293.15 76.7444 292.556 76.5523 291.858C76.1244 290.252 75.5393 288.035 74.8057 285.321C73.3561 279.796 71.3126 272.177 68.9198 263.798C66.527 255.42 64.2477 247.87 62.571 242.406C61.7501 239.727 61.0689 237.536 60.5886 235.948C60.3703 235.223 60.1956 234.639 60.0646 234.202C59.995 233.981 59.951 233.753 59.9337 233.522Z" fill="#263238"/>
<path d="M69.5223 277.073C67.6248 273.126 64.8129 269.687 61.3197 267.043C57.8266 264.399 53.7529 262.625 49.4367 261.87C47.2448 261.503 44.5551 261.634 43.3849 263.519C42.2146 265.404 43.315 267.883 44.6686 269.629C47.5615 273.269 51.4673 275.973 55.8945 277.401C60.3216 278.828 65.0722 278.914 69.5485 277.649" fill="#FE4400"/>
<path d="M52.2575 268.092C52.7221 268.105 53.1843 268.163 53.6373 268.267C54.1735 268.348 54.7043 268.462 55.2266 268.607C55.8379 268.782 56.5628 268.913 57.3138 269.201C58.0648 269.489 58.9032 269.733 59.759 270.126C60.6834 270.522 61.5869 270.965 62.4662 271.453C64.4743 272.59 66.3489 273.949 68.0552 275.502C69.7378 277.086 71.2296 278.861 72.5002 280.791C73.0457 281.636 73.5443 282.51 73.9936 283.41C74.3995 284.186 74.7554 284.988 75.059 285.81C75.3304 286.477 75.5636 287.159 75.7576 287.852C75.9316 288.368 76.0688 288.896 76.168 289.432C76.2896 289.88 76.3686 290.339 76.4038 290.802C76.2903 290.802 75.9323 288.873 74.7184 285.941C74.3927 285.144 74.0224 284.366 73.6093 283.611C73.1516 282.732 72.6473 281.878 72.0985 281.053C70.8338 279.179 69.3698 277.446 67.7321 275.886C66.0559 274.356 64.2202 273.01 62.2566 271.872C61.4093 271.375 60.5346 270.926 59.6367 270.528C58.858 270.157 58.0591 269.831 57.2439 269.55C54.1874 268.529 52.2313 268.197 52.2575 268.092Z" fill="#263238"/>
<path opacity="0.17" d="M277.234 8.43979C270.573 7.9912 263.909 9.26928 257.888 12.1502C251.867 15.0312 246.692 19.4173 242.865 24.8839C239.038 30.3504 236.688 36.7121 236.043 43.3528C235.398 49.9934 236.48 56.6879 239.184 62.7879C243.691 72.9733 252.423 80.8807 256.275 91.3541C258.895 98.4934 259.122 106.366 261.82 113.479C267.365 128.107 284.298 137.411 299.625 134.26C308.829 132.375 317.09 126.623 326.487 126.038C336.547 125.41 348.005 130.525 355.978 124.345C361.549 120.025 362.493 111.734 360.475 104.987C358.458 98.2403 354.109 92.48 350.537 86.4054C346.965 80.3308 344.057 73.3137 345.385 66.3925C346.581 60.1172 351.035 55.0463 353.83 49.2947C356.465 43.8869 357.63 37.8808 357.206 31.8804C356.782 25.8801 354.785 20.097 351.415 15.1129C348.045 10.1288 343.422 6.11934 338.01 3.48783C332.597 0.856318 326.587 -0.304479 320.583 0.122178C312.584 0.689486 305.083 4.02351 297.389 6.23165C289.695 8.43979 285.844 8.73653 277.234 8.43979Z" fill="#F4B7A2"/>
<path d="M296.42 34.0909C296.42 34.0909 281.617 33.9425 276.526 46.7986C271.435 59.6546 277.269 65.8601 279.548 69.6393C281.827 73.4184 287.949 81.64 288.001 89.3903L307.886 89.2594C308.917 82.3991 311.291 75.8091 314.872 69.8662C320.819 59.9689 320.112 52.7509 318.488 48.4394C316.863 44.1279 311.562 33.4537 296.42 34.0909Z" fill="#FE4400"/>
<path d="M300.935 88.7357L300.882 88.4215C300.882 88.2033 300.804 87.9066 300.742 87.5487C300.62 86.7283 300.454 85.5501 300.236 84.0576C299.826 81.0116 299.214 76.5866 298.83 71.0881C298.734 69.7091 298.655 68.269 298.612 66.7242C298.568 65.1793 298.533 63.652 298.612 62.0286C298.68 60.3342 299.074 58.6689 299.773 57.1236C300.534 55.4625 301.88 54.1392 303.554 53.4055C304.454 53.0511 305.437 52.9639 306.385 53.1543C307.333 53.3448 308.206 53.8048 308.899 54.479C309.258 54.83 309.542 55.2498 309.734 55.7133C309.926 56.1767 310.022 56.6743 310.017 57.1759C309.985 58.1966 309.624 59.1796 308.986 59.9776C308.358 60.7912 307.539 61.4384 306.602 61.8628C305.67 62.2979 304.687 62.6145 303.677 62.8054C301.628 63.2118 299.547 63.4338 297.459 63.4687C295.374 63.5254 293.288 63.4057 291.224 63.1109C290.206 62.9502 289.213 62.6568 288.272 62.2381C287.342 61.8271 286.505 61.2335 285.809 60.4925C285.12 59.7588 284.637 58.8552 284.412 57.8742C284.205 56.8908 284.337 55.8663 284.788 54.9678C285.214 54.0749 285.953 53.3698 286.866 52.9866C287.318 52.8234 287.799 52.7532 288.279 52.7802C288.759 52.8072 289.229 52.9308 289.66 53.1437C290.494 53.5539 291.208 54.1734 291.73 54.9416C292.216 55.6646 292.567 56.4686 292.769 57.3156C293.06 58.9698 293.209 60.6458 293.215 62.3254C293.354 65.5634 293.485 68.5745 293.599 71.3325C293.826 76.8223 294.001 81.2735 294.132 84.3631C294.184 85.8992 294.228 87.0862 294.263 87.9066C294.263 88.3081 294.263 88.6135 294.263 88.8317C294.263 89.0499 294.263 89.1459 294.263 89.1459V88.8317C294.263 88.6135 294.263 88.3081 294.21 87.959C294.21 87.1385 294.097 85.9428 294.018 84.4155C293.87 81.3258 293.66 76.8746 293.389 71.3848C293.267 68.6356 293.119 65.6157 292.97 62.3864C292.96 60.7212 292.808 59.0598 292.516 57.4203C292.336 56.5778 292.001 55.7759 291.529 55.0551C291.035 54.3276 290.357 53.7435 289.564 53.3619C289.168 53.1636 288.735 53.0481 288.292 53.0226C287.849 52.9971 287.405 53.0621 286.988 53.2135C286.145 53.5706 285.464 54.2265 285.076 55.0551C284.653 55.8934 284.529 56.8513 284.726 57.7694C284.94 58.7086 285.401 59.5736 286.063 60.2743C287.47 61.6956 289.316 62.5998 291.302 62.8403C293.346 63.1359 295.412 63.2556 297.476 63.1981C299.544 63.1628 301.604 62.9438 303.633 62.5436C304.622 62.3571 305.584 62.0493 306.497 61.6271C307.383 61.231 308.164 60.6332 308.777 59.8816C309.37 59.134 309.71 58.2168 309.746 57.2632C309.752 56.7991 309.664 56.3386 309.487 55.9095C309.31 55.4805 309.047 55.0918 308.716 54.7671C308.063 54.1329 307.242 53.7001 306.35 53.5205C305.458 53.341 304.533 53.4222 303.685 53.7546C302.073 54.4591 300.775 55.7289 300.035 57.3243C299.352 58.8402 298.963 60.4723 298.891 62.1333C298.786 63.7393 298.83 65.3015 298.891 66.8027C298.952 68.3039 299.005 69.744 299.083 71.1143C299.441 76.6128 300.026 81.0291 300.402 84.0925L300.847 87.5837C300.894 87.9735 300.929 88.279 300.952 88.5001C300.95 88.5788 300.944 88.6575 300.935 88.7357Z" fill="#263238"/>
<path d="M287.984 89.1023L307.947 88.7881L308.157 101.391L302.367 108.303L294.708 108.635L288.228 100.894L287.984 89.1023Z" fill="#E0E0E0"/>
<path d="M302.367 108.304C301.847 107.773 301.224 107.355 300.536 107.075C299.848 106.796 299.11 106.662 298.367 106.68C297.634 106.726 296.918 106.925 296.267 107.264C295.615 107.604 295.042 108.077 294.586 108.653L302.367 108.304Z" fill="#455A64"/>
<path d="M307.633 100.352C307.38 100.279 307.137 100.177 306.908 100.047C306.454 99.8288 305.781 99.5408 304.934 99.2353C300.469 97.646 295.575 97.7485 291.18 99.5233C290.35 99.8637 289.687 100.178 289.241 100.396C289.013 100.525 288.777 100.639 288.534 100.736C288.732 100.564 288.948 100.415 289.18 100.291C289.797 99.9185 290.439 99.589 291.101 99.3051C295.518 97.3888 300.512 97.2853 305.004 99.0171C305.674 99.267 306.327 99.5585 306.96 99.8899C307.197 100.025 307.422 100.18 307.633 100.352Z" fill="#263238"/>
<path d="M307.659 97.2978C307.41 97.2096 307.168 97.1046 306.934 96.9836C306.48 96.7741 305.808 96.4773 304.96 96.1806C302.745 95.4014 300.409 95.0231 298.061 95.0634C295.71 95.1158 293.388 95.5918 291.206 96.4686C290.333 96.8003 289.713 97.1232 289.267 97.3414C289.046 97.4819 288.808 97.5961 288.56 97.6818C288.763 97.5164 288.979 97.3675 289.206 97.2367C289.826 96.8708 290.467 96.5443 291.128 96.2591C295.544 94.3428 300.538 94.2394 305.03 95.9711C305.703 96.2136 306.357 96.5053 306.986 96.8439C307.228 96.9679 307.454 97.1202 307.659 97.2978Z" fill="#263238"/>
<path d="M307.502 94.3826C307.253 94.3063 307.013 94.2039 306.786 94.0771C306.323 93.8589 305.65 93.5709 304.803 93.2655C302.589 92.4846 300.252 92.1062 297.904 92.1483C295.557 92.2092 293.239 92.6849 291.058 93.5535C290.184 93.8939 289.564 94.2081 289.119 94.4263C288.89 94.5589 288.65 94.6727 288.403 94.7667C288.603 94.5929 288.823 94.4435 289.058 94.3215C289.673 93.9502 290.311 93.6207 290.97 93.3353C295.391 91.4222 300.386 91.3187 304.882 93.0473C305.551 93.2972 306.205 93.5886 306.838 93.9201C307.073 94.0534 307.295 94.2082 307.502 94.3826Z" fill="#263238"/>
<g opacity="0.46">
<path opacity="0.46" d="M285.608 69.6654C285.338 69.9709 284.648 69.9185 283.652 69.4036C282.287 68.629 281.098 67.58 280.159 66.3227C278.725 64.4586 277.682 62.3241 277.094 60.0474C276.328 57.1944 276.259 54.1995 276.891 51.314C277.523 48.4286 278.838 45.7368 280.727 43.4645C282.209 41.6379 284.048 40.1323 286.132 39.0395C287.505 38.288 289.018 37.8303 290.577 37.6954C291.686 37.643 292.324 37.8787 292.464 38.2715C292.717 39.1442 290.857 40.3138 288.639 42.5655C287.359 43.8399 286.231 45.2574 285.277 46.7898C284.153 48.585 283.338 50.5557 282.866 52.62C282.437 54.6924 282.351 56.8213 282.613 58.9215C282.845 60.7101 283.279 62.4669 283.905 64.1582C284.988 67.1344 286.185 69.0021 285.608 69.6654Z" fill="white"/>
</g>
<g opacity="0.46">
<path opacity="0.46" d="M291.983 76.7175C291.926 77.2557 291.713 77.7656 291.371 78.1852C291.029 78.6047 290.572 78.9158 290.056 79.0807C289.54 79.2456 288.987 79.2571 288.465 79.1139C287.943 78.9706 287.473 78.6788 287.114 78.2738C286.755 77.8689 286.521 77.3683 286.441 76.833C286.361 76.2977 286.438 75.7506 286.664 75.2584C286.889 74.7662 287.253 74.3501 287.71 74.0606C288.168 73.7711 288.7 73.6208 289.241 73.6279C290.013 73.6795 290.733 74.0326 291.246 74.6108C291.759 75.189 292.024 75.9457 291.983 76.7175Z" fill="white"/>
</g>
<path d="M272.553 38.7515C272.5 38.8126 269.933 37.0059 266.894 34.6669C263.855 32.3278 261.375 30.399 261.418 30.303C261.462 30.207 264.038 32.0485 267.077 34.3876C270.116 36.7266 272.605 38.6817 272.553 38.7515Z" fill="#263238"/>
<path d="M276.736 33.2093C275.872 32.3786 275.081 31.4765 274.369 30.5124C273.579 29.6155 272.863 28.6551 272.23 27.641C273.097 28.4703 273.892 29.3726 274.605 30.3379C275.397 31.2315 276.11 32.1923 276.736 33.2093Z" fill="#263238"/>
<path d="M285.844 31.9351C285.766 31.9351 284.753 29.1509 283.582 25.6598C282.412 22.1686 281.53 19.3059 281.609 19.2797C281.687 19.2535 282.7 22.0639 283.871 25.555C285.041 29.0462 285.923 31.9089 285.844 31.9351Z" fill="#263238"/>
<path d="M297.031 29.5175C296.737 28.4786 296.539 27.4153 296.437 26.3406C296.237 25.2789 296.141 24.2003 296.149 23.12C296.444 24.1586 296.642 25.222 296.743 26.2969C296.943 27.3586 297.039 28.4372 297.031 29.5175Z" fill="#263238"/>
<path d="M308.008 33.3053C307.921 33.3053 308.768 29.9626 309.894 25.8867C311.021 21.8108 312.008 18.5204 312.086 18.5466C312.165 18.5728 311.318 21.8894 310.191 25.9652C309.065 30.0411 308.087 33.3315 308.008 33.3053Z" fill="#263238"/>
<path d="M317.256 37.87C317.789 36.7847 318.412 35.7455 319.116 34.7629C319.733 33.7252 320.44 32.7438 321.23 31.8303C320.697 32.9156 320.074 33.9548 319.37 34.9374C318.753 35.9751 318.046 36.9565 317.256 37.87Z" fill="#263238"/>
<path d="M331.893 35.9586C331.936 36.0285 329.369 37.966 326.146 40.3225C322.924 42.6791 320.278 44.477 320.225 44.4072C320.173 44.3373 322.749 42.3998 325.972 40.0433C329.194 37.6867 331.893 35.8888 331.893 35.9586Z" fill="#263238"/>
</svg>
