<svg width="1047" height="198" viewBox="0 0 1047 198" fill="none" xmlns="http://www.w3.org/2000/svg">
<path d="M0 111.6C0 50.8 90.19 50.8 90.19 111.6C90.19 172.4 0 172.53 0 111.6ZM67.21 111.6C67.21 79.94 23.11 79.94 23.11 111.6C23.13 143.51 67.23 143.51 67.23 111.6H67.21Z" fill="#FF4500"/>
<path d="M169.4 150.69V153.96H144.28L129.2 128.05H117.52V153.93H95V66H133.6C168.15 66.12 174.43 107.7 152.19 122.78L169.4 150.69ZM133.6 86.13C128.33 86 122.8 86.13 117.52 86.13V108.13H133.6C145.79 108.08 146.42 86.22 133.6 86.1V86.13Z" fill="#FF4500"/>
<path d="M235.82 143.98H201.15L196 155.03H174V151.79L213.57 66H223.24L262.96 151.79V155.06H240.96L235.82 143.98ZM218.36 101.64L208.44 124.79H228.53L218.36 101.64Z" fill="#FF4500"/>
<path d="M291.24 111.07V154.28H268V66H276.17L320.64 109.46V66.38H343.64V154.44H335.64L291.24 111.07Z" fill="#FF4500"/>
<path d="M394.09 66C411.81 66.12 430.27 75.29 434.54 97.15H412.44C408.79 89.61 403.01 86.6 394.09 86.6C379.9 86.6 372.24 97.65 372.24 111.09C372.24 125.67 380.78 135.21 394.09 135.21C403.09 135.21 408.92 132.83 412.94 124.41H394.22V104.94H435.8C436.3 113.73 436.3 122.15 433.29 130.69C427.01 149.03 410.29 156.07 394.09 156.07C371.73 156.07 349.09 141.12 349 111.07C349.12 81.07 371.73 66 394.09 66Z" fill="#FF4500"/>
<path d="M499.84 87.1H467.33V99.53H497.23V119.53H467.33V134.98H501V154.98H445V67H499.89L499.84 87.1Z" fill="#FF4500"/>
<path d="M716.473 128.512C716.473 122.452 709.303 121.092 700.643 120.602C681.843 119.242 669.473 112.812 669.223 94.0125C668.483 56.6625 735.763 56.6625 735.273 94.0125H714.273C714.273 82.5025 691.023 83.4925 690.273 93.7625C689.783 100.312 696.213 101.672 704.003 102.542C721.193 104.392 738.003 106.993 738.003 128.643C738.003 165.003 667.503 165.642 668.003 127.522H689.393C689.383 138.532 716.473 138.652 716.473 128.512Z" fill="#5251A2"/>
<path d="M814.98 153.57H792.34V118.82H765.63V153.57H743V67H765.63V98.41H792.34V67H814.98V153.57Z" fill="#5251A2"/>
<path d="M880.85 142.81H846.72L841.65 153.69H820V150.48L859 66H868.54L907.54 150.48V153.69H885.89L880.85 142.81ZM863.66 101.13L853.89 123.88H873.68L863.66 101.13Z" fill="#5251A2"/>
<path d="M985.22 150.36V153.57H960.49L945.64 128.09H934.14V153.57H912V67H950C984 67.12 990.2 108.06 968.31 122.9L985.22 150.36ZM949.97 86.78C944.78 86.66 939.34 86.78 934.14 86.78V108.43H949.97C961.97 108.43 962.59 86.9 949.97 86.78Z" fill="#5251A2"/>
<path d="M1045.05 85.78H1013.05V98.03H1042.49V117.69H1013.05V132.9H1046.16V152.56H991V66H1045.05V85.78Z" fill="#5251A2"/>
<path d="M595.82 0C595.82 0 578.26 19.68 580.82 39.13L582.46 38.88C582.46 38.88 586.46 16.94 605.11 2.82L595.82 0Z" fill="#2BA041"/>
<path d="M551.72 15.5301C561.9 16.8801 573.11 13.3601 582.37 22.8101C575.04 21.3801 569.47 24.1801 563.83 26.9001C557.89 29.7701 552.16 28.9901 546.68 25.4201C538.94 20.3701 531.16 15.4201 523.26 10.2801C533.2 11.8401 541.84 6.8301 551.04 4.0701C565.3 -0.209899 581.74 7.4101 587.27 21.2001C581.78 17.3301 576.49 13.8801 570.02 14.0601C563.91 14.2101 557.82 15.0001 551.72 15.5301Z" fill="#2BA041"/>
<path d="M596.26 160.59C591.959 164.042 587.108 166.747 581.91 168.59C576.494 170.465 570.811 171.457 565.08 171.53C556.003 171.552 547.045 169.463 538.914 165.428C530.783 161.393 523.702 155.522 518.23 148.28L516.8 146.45L515.54 144.45C514.71 143.14 513.86 141.83 513.11 140.45C511.646 137.696 510.37 134.846 509.29 131.92C504.946 120.007 504.32 107.056 507.497 94.7794C510.674 82.5032 517.502 71.4806 527.08 63.17L530.73 60.17L534.62 57.57C535.892 56.6949 537.229 55.9193 538.62 55.25C540.01 54.57 541.36 53.8 542.79 53.25C548.444 50.8077 554.435 49.2333 560.56 48.58C562.09 48.45 563.56 48.32 565.12 48.24L569.67 48.34C571.17 48.34 572.67 48.62 574.17 48.76L576.4 49.04L578.59 49.52C581.495 50.1296 584.353 50.9484 587.14 51.97L591.14 53.73C592.466 54.3312 593.761 54.9987 595.02 55.73C599.997 58.5697 604.482 62.1966 608.3 66.47C611.949 70.6157 614.871 75.3492 616.94 80.47C613.098 76.9519 608.89 73.8544 604.39 71.23L601.07 69.48C599.94 68.95 598.78 68.48 597.67 68.01C596.545 67.5325 595.397 67.112 594.23 66.75L592.52 66.16C591.95 65.98 591.35 65.87 590.77 65.72C581.832 63.3169 572.42 63.2927 563.47 65.65C562.395 65.924 561.337 66.2578 560.3 66.65L558.74 67.17C558.23 67.37 557.74 67.62 557.23 67.84C556.23 68.31 555.23 68.63 554.23 69.16L551.34 70.7C550.34 71.22 549.53 71.9 548.61 72.48C548.17 72.78 547.71 73.07 547.26 73.36C546.81 73.65 546.41 74.02 545.98 74.36L543.46 76.36L541.17 78.6C538.153 81.579 535.577 84.9732 533.52 88.68C529.336 96.037 527.167 104.367 527.23 112.83V114.42L527.38 115.99C527.5 117.04 527.51 118.11 527.69 119.15C528.033 121.243 528.491 123.316 529.06 125.36C529.628 127.427 530.329 129.454 531.16 131.43C531.61 132.43 532.16 133.35 532.59 134.34L533.29 135.81L534.14 137.19C534.72 138.1 535.25 139.07 535.86 139.96C536.47 140.85 537.2 141.68 537.86 142.58C538.512 143.464 539.224 144.303 539.99 145.09C540.697 145.945 541.466 146.747 542.29 147.49C548.963 153.916 557.203 158.481 566.19 160.73L569.72 161.55C570.91 161.76 572.11 161.86 573.33 162.06C573.94 162.14 574.55 162.27 575.17 162.3L577.01 162.38C578.25 162.38 579.52 162.59 580.77 162.5L584.57 162.36C585.86 162.36 587.11 162.06 588.41 161.93C591.09 161.85 593.55 161.02 596.26 160.59Z" fill="#E56607"/>
<path d="M510.29 148.74C511.47 150.14 512.63 151.54 513.75 152.94C514.32 153.62 514.84 154.34 515.46 154.99L517.35 156.89C518.62 158.14 519.73 159.49 521.08 160.62L525.08 164.03C525.727 164.607 526.415 165.135 527.14 165.61L529.25 167.12L531.33 168.61C532.03 169.11 532.81 169.49 533.53 169.93C535.03 170.76 536.44 171.68 537.93 172.48L542.5 174.62C554.494 179.929 567.693 181.921 580.72 180.39C582.302 180.253 583.873 180.006 585.42 179.65C586.98 179.416 588.523 179.082 590.04 178.65C591.54 178.18 593.04 177.77 594.57 177.35C596.1 176.93 597.49 176.2 598.95 175.65L601.13 174.8L603.21 173.7C604.59 172.96 606.01 172.32 607.37 171.56C610.045 169.984 612.61 168.23 615.05 166.31L616.88 164.88L617.79 164.18L618.63 163.38L622 160.22C623.11 159.16 624 157.92 625.08 156.79L626.6 155.07L627.93 153.18C635.276 143.262 639.787 131.534 640.98 119.25C641.636 113.122 641.404 106.931 640.29 100.87L639.41 96.3199L638.06 91.8599C637.82 91.1299 637.66 90.3599 637.35 89.6399L636.46 87.4799C635.84 86.0499 635.37 84.5399 634.66 83.1499L632.49 78.9599C631.77 77.5599 630.81 76.3199 630 74.9599C629.58 74.2899 629.19 73.5999 628.74 72.9599L627.3 71.0799L625.86 69.1899L625.14 68.1899L624.33 67.3199C620.129 62.4376 615.269 58.1634 609.89 54.6199L607.89 53.2699L606.89 52.5999L605.81 52.0199L601.47 49.6699L596.93 47.6699C595.42 46.9399 593.8 46.5599 592.23 45.9599C591.44 45.6899 590.65 45.3699 589.85 45.1399L587.4 44.5099C585.754 44.0423 584.086 43.6618 582.4 43.3699C580.72 43.0899 579.04 42.7499 577.33 42.5099L572.18 42.0499C565.083 41.7208 557.971 42.1938 550.98 43.4599C557.471 39.8668 564.492 37.3285 571.78 35.9399C579.298 34.5637 586.985 34.3814 594.56 35.3999L597.43 35.8199C598.394 35.9415 599.349 36.1252 600.29 36.3699L605.98 37.7499C609.741 38.8963 613.417 40.3064 616.98 41.9699L619.68 43.1999L622.25 44.6699L624.83 46.1699L626.12 46.9299L627.33 47.7799L632.22 51.2499C633.75 52.5299 635.22 53.8599 636.76 55.1799C642.697 60.665 647.792 66.9966 651.88 73.9699C652.94 75.6899 653.76 77.5499 654.71 79.3499L656.06 82.0899C656.5 82.9999 656.8 83.9799 657.18 84.9299L659.29 90.6699L660.85 96.6099C663.621 108.673 663.657 121.203 660.954 133.281C658.251 145.359 652.878 156.679 645.23 166.41L643.34 168.84L641.23 171.09C639.8 172.57 638.46 174.09 636.94 175.51L632.3 179.51L631.14 180.51L629.88 181.39L627.36 183.15C623.997 185.458 620.487 187.543 616.85 189.39C615.02 190.27 613.12 191.03 611.25 191.81L608.43 192.96L605.52 193.85C597.825 196.342 589.788 197.614 581.7 197.62C579.7 197.62 577.7 197.577 575.7 197.49L569.76 196.75C567.791 196.514 565.84 196.146 563.92 195.65C561.979 195.269 560.065 194.761 558.19 194.13L552.61 192.23C550.8 191.47 549.02 190.64 547.26 189.82C545.488 189.01 543.771 188.085 542.12 187.05L539.61 185.57C538.767 185.095 537.961 184.557 537.2 183.96L532.51 180.53C531.03 179.3 529.63 177.98 528.23 176.69C527.55 176.03 526.81 175.43 526.17 174.69L524.28 172.56L522.4 170.53C521.767 169.834 521.182 169.095 520.65 168.32C516.184 162.382 512.687 155.773 510.29 148.74Z" fill="#E56607"/>
<path d="M588.55 131.07C588.14 124.67 587.86 120.43 587.55 115.62C567.82 113.39 555.65 124.39 544.79 139.62C545.89 113.56 558.79 100.02 587.53 93.4999L588.53 80.1299L625.15 105.58L588.55 131.07Z" fill="#5251A2"/>
</svg>
